{"glyphs":{"0":{"ha":772,"x_min":0,"x_max":0,"o":"m 53 482 b 390 983 53 611 79 983 b 643 856 526 983 607 910 b 731 506 693 782 731 688 b 388 -15 731 281 679 -15 b 53 482 139 -15 53 224 m 522 471 b 497 710 522 532 515 646 b 392 822 492 736 468 822 b 296 739 332 822 306 768 b 264 468 264 640 264 492 b 393 149 264 303 289 149 b 522 471 504 149 522 338 "},"1":{"ha":772,"x_min":0,"x_max":0,"o":"m 132 824 b 389 969 222 863 308 911 l 568 969 l 568 0 l 358 0 l 358 754 b 132 631 318 724 238 674 "},"2":{"ha":772,"x_min":0,"x_max":0,"o":"m 35 196 l 286 425 b 432 572 331 465 381 510 b 499 713 486 638 499 668 b 383 836 499 786 456 836 b 261 694 272 836 263 722 l 49 694 b 106 876 49 733 49 806 b 382 982 161 946 264 982 b 710 718 593 982 710 868 b 251 151 710 618 671 489 b 518 157 392 154 408 156 b 715 161 667 160 683 160 l 715 0 l 35 0 "},"3":{"ha":772,"x_min":0,"x_max":0,"o":"m 242 264 b 367 135 243 233 251 135 b 492 267 444 135 492 192 b 253 410 492 410 354 410 l 253 572 b 493 717 350 575 493 578 b 374 832 493 793 436 832 b 256 711 314 832 256 792 l 43 711 b 100 875 47 754 51 815 b 369 982 164 953 267 982 b 696 718 617 982 696 824 b 510 499 696 556 553 511 b 625 439 540 489 581 476 b 704 265 693 382 704 311 b 353 -21 704 101 554 -21 b 119 44 283 -21 182 -6 b 31 264 33 115 31 225 "},"4":{"ha":772,"x_min":0,"x_max":0,"o":"m 22 211 l 22 399 l 411 969 l 618 969 l 617 371 l 749 371 l 749 211 l 617 211 l 617 0 l 411 0 l 411 211 m 178 367 l 422 367 l 422 622 b 425 729 422 635 424 704 "},"5":{"ha":772,"x_min":0,"x_max":0,"o":"m 249 239 b 363 131 247 217 265 131 b 506 313 438 131 506 185 b 376 486 506 406 469 486 b 253 389 283 486 260 411 l 51 394 l 74 968 l 661 968 l 661 810 l 257 810 l 244 569 b 428 639 275 596 321 639 b 714 331 583 639 714 525 b 368 -21 714 165 617 -21 b 97 85 267 -21 164 6 b 43 239 49 143 44 203 "},"6":{"ha":772,"x_min":0,"x_max":0,"o":"m 515 729 b 414 825 511 799 465 825 b 268 553 275 825 271 653 b 458 631 303 585 357 631 b 736 324 593 631 736 535 b 633 71 736 217 707 139 b 386 -19 569 11 494 -19 b 51 421 51 -19 51 306 b 208 914 51 615 76 817 b 432 982 293 978 394 982 b 721 729 578 982 717 907 m 399 136 b 532 310 458 136 532 178 b 407 476 532 417 476 476 b 267 306 372 476 267 456 b 399 136 267 186 331 136 "},"7":{"ha":772,"x_min":0,"x_max":0,"o":"m 51 968 l 708 968 l 708 796 l 375 0 l 143 0 l 497 807 l 51 807 "},"8":{"ha":772,"x_min":0,"x_max":0,"o":"m 242 508 b 58 715 193 524 58 565 b 393 986 58 833 157 986 b 722 724 588 986 722 875 b 532 511 722 607 631 526 b 688 411 571 500 636 483 b 732 267 721 364 732 314 b 376 -15 732 89 567 -15 b 43 267 179 -15 43 111 b 114 436 43 342 72 396 b 242 508 161 482 206 496 m 390 588 b 521 713 461 588 521 635 b 392 833 521 792 457 833 b 265 713 322 833 265 786 b 390 588 265 644 314 588 m 390 133 b 528 281 449 133 528 172 b 389 421 528 368 463 421 b 250 278 308 421 250 360 b 390 133 250 179 324 133 "},"9":{"ha":772,"x_min":0,"x_max":0,"o":"m 256 236 b 357 142 261 178 299 142 b 508 425 501 142 513 292 b 333 358 439 363 376 358 b 35 663 96 358 35 547 b 378 981 35 843 164 981 b 719 508 711 981 719 664 b 346 -18 719 99 581 -18 b 46 236 292 -18 46 -18 m 371 518 b 504 676 474 518 504 608 b 375 824 504 761 460 824 b 240 671 276 824 240 744 b 371 518 240 638 250 518 "}," ":{"ha":386,"x_min":0,"x_max":0,"o":""},"!":{"ha":540,"x_min":0,"x_max":0,"o":"m 196 274 l 171 1004 l 357 1004 l 339 274 m 179 185 l 356 185 l 356 0 l 179 0 "},"\"":{"ha":658,"x_min":0,"x_max":0,"o":"m 286 968 l 249 624 l 139 624 l 101 968 m 551 968 l 515 624 l 406 624 l 368 968 "},"#":{"ha":772,"x_min":0,"x_max":0,"o":"m -12 396 l 131 396 l 161 564 l 47 564 l 47 717 l 190 717 l 236 968 l 414 968 l 368 717 l 500 717 l 546 968 l 725 968 l 678 717 l 793 717 l 793 564 l 650 564 l 619 396 l 733 396 l 733 243 l 590 243 l 546 0 l 368 0 l 414 243 l 281 243 l 236 0 l 57 0 l 101 243 l -12 243 m 440 396 l 472 564 l 340 564 l 308 396 "},"$":{"ha":772,"x_min":0,"x_max":0,"o":"m 222 299 b 340 144 218 160 311 144 l 340 390 b 53 674 192 432 53 486 b 124 857 53 724 64 792 b 349 956 203 943 297 950 l 349 1072 l 425 1072 l 425 958 b 647 875 499 953 582 940 b 717 685 714 808 715 731 l 531 685 b 422 813 526 788 483 806 l 422 565 b 726 281 578 526 726 479 b 608 57 726 169 663 96 b 413 -3 536 6 463 0 l 413 -142 l 339 -142 l 339 -3 b 110 79 207 -7 131 60 b 33 299 51 133 36 203 m 347 810 b 242 701 275 806 242 760 b 347 586 242 622 293 603 m 415 142 b 528 260 472 147 528 186 b 415 375 528 318 496 353 "},"%":{"ha":1235,"x_min":0,"x_max":0,"o":"m 69 790 b 301 1058 69 863 71 1058 b 528 804 494 1058 528 935 b 292 526 528 735 528 526 b 69 790 128 526 69 640 m 219 796 b 296 640 219 689 238 640 b 376 803 343 640 376 671 b 301 950 376 860 372 950 b 219 796 219 950 219 838 m 708 253 b 940 519 708 324 708 519 b 1167 267 1132 519 1167 396 b 929 -12 1167 196 1167 -12 b 708 253 765 -12 708 103 m 857 257 b 935 101 857 151 875 101 b 1015 264 982 101 1015 132 b 939 411 1015 321 1010 411 b 857 257 857 411 857 300 m 928 1068 l 400 -17 l 296 -17 l 824 1068 "},"&":{"ha":1081,"x_min":0,"x_max":0,"o":"m 982 624 b 869 208 982 456 953 340 l 1074 -3 l 814 -3 l 736 90 b 411 -26 672 42 581 -26 b 32 276 193 -26 32 83 b 104 474 32 325 43 397 b 242 590 156 538 207 568 b 121 803 208 618 121 689 b 428 1031 121 863 154 1031 b 728 811 688 1031 728 883 b 533 551 728 657 586 581 l 736 347 b 776 624 775 454 776 517 m 426 660 b 528 806 456 681 528 739 b 428 897 528 860 489 897 b 326 808 367 897 326 861 b 426 660 326 746 413 671 m 357 458 b 249 293 296 418 249 368 b 425 126 249 188 333 126 b 610 201 490 126 564 164 "},"’":{"ha":386,"x_min":0,"x_max":0,"o":"m 153 1003 l 356 1003 l 200 660 l 54 660 "},"(":{"ha":463,"x_min":0,"x_max":0,"o":"m 379 1051 b 257 439 333 913 257 688 b 378 -171 257 253 296 114 l 226 -171 b 86 432 147 22 86 224 b 228 1051 86 646 150 853 "},")":{"ha":463,"x_min":0,"x_max":0,"o":"m 83 -171 b 206 442 129 -32 206 193 b 85 1051 206 629 167 767 l 236 1051 b 376 450 315 860 376 657 b 235 -171 376 236 313 29 "},"*":{"ha":772,"x_min":0,"x_max":0,"o":"m 93 793 l 304 763 l 174 928 l 303 999 l 381 807 l 463 1003 l 592 926 l 456 763 l 668 788 l 665 640 l 458 672 l 589 501 l 460 431 l 379 626 l 299 429 l 174 504 l 303 674 l 93 646 "},"+":{"ha":811,"x_min":0,"x_max":0,"o":"m 313 281 l 36 281 l 36 460 l 313 460 l 313 740 l 499 740 l 499 460 l 775 460 l 775 281 l 499 281 l 499 0 l 313 0 "},",":{"ha":386,"x_min":0,"x_max":0,"o":"m 347 185 l 182 -157 l 39 -157 l 142 185 "},"-":{"ha":463,"x_min":0,"x_max":0,"o":"m 61 446 l 406 446 l 406 289 l 61 289 "},".":{"ha":386,"x_min":0,"x_max":0,"o":"m 103 185 l 279 185 l 279 0 l 103 0 "},"/":{"ha":617,"x_min":0,"x_max":0,"o":"m 576 997 l 203 0 l 40 0 l 417 997 "},":":{"ha":386,"x_min":0,"x_max":0,"o":"m 106 186 l 281 186 l 281 0 l 106 0 m 106 701 l 281 701 l 281 514 l 106 514 "},";":{"ha":386,"x_min":0,"x_max":0,"o":"m 111 701 l 286 701 l 286 514 l 111 514 m 326 185 l 161 -157 l 18 -157 l 121 185 "},"<":{"ha":811,"x_min":0,"x_max":0,"o":"m 36 464 l 775 750 l 775 556 l 258 371 l 775 186 l 775 -10 l 36 278 "},"=":{"ha":811,"x_min":0,"x_max":0,"o":"m 36 621 l 775 621 l 775 442 l 36 442 m 36 299 l 775 299 l 775 119 l 36 119 "},">":{"ha":811,"x_min":0,"x_max":0,"o":"m 36 -10 l 36 186 l 553 371 l 36 556 l 36 750 l 776 464 l 776 278 "},"?":{"ha":694,"x_min":0,"x_max":0,"o":"m 197 225 l 197 354 b 249 476 197 385 197 418 l 310 544 b 415 746 365 607 415 676 b 249 883 415 779 404 883 b 64 850 185 883 140 871 l 64 994 b 299 1022 117 1008 188 1022 b 629 763 463 1022 629 949 b 590 629 629 736 626 682 b 518 542 549 569 533 556 l 439 471 b 356 338 365 404 356 383 l 356 225 m 193 167 l 360 167 l 360 0 l 193 0 "},"@":{"ha":1354,"x_min":0,"x_max":0,"o":"m 1121 125 b 697 -25 964 11 838 -25 b 164 489 383 -25 164 185 b 721 1025 164 821 422 1025 b 1190 607 968 1025 1190 883 b 907 249 1190 411 1068 249 b 801 293 875 249 831 257 b 778 358 782 318 779 342 b 593 240 725 260 647 240 b 407 453 488 240 407 318 b 683 782 407 615 525 782 b 797 744 721 782 767 772 b 829 697 817 726 824 711 l 847 760 l 985 760 l 901 474 b 883 389 893 447 883 414 b 931 340 883 356 907 340 b 1094 614 1001 340 1094 447 b 718 944 1094 858 892 944 b 254 483 471 944 254 782 b 703 56 254 217 443 56 b 1074 188 765 56 906 58 m 571 432 b 640 340 571 418 574 340 b 733 424 692 340 719 393 b 785 617 771 504 785 611 b 717 682 785 649 763 682 b 571 432 643 682 571 556 "},"A":{"ha":1003,"x_min":0,"x_max":0,"o":"m 625 1004 l 974 0 l 757 0 l 685 217 l 288 217 l 213 0 l 7 0 l 369 1004 m 631 379 l 492 807 l 343 379 "},"B":{"ha":926,"x_min":0,"x_max":0,"o":"m 94 1003 l 469 1003 b 717 956 528 1003 640 1003 b 829 742 808 897 829 800 b 771 592 829 704 822 639 b 657 524 764 583 715 539 l 657 521 b 869 276 810 493 869 382 b 722 40 869 158 800 79 b 469 0 644 0 508 0 l 94 0 m 300 594 l 450 594 b 622 724 511 594 622 594 b 446 849 622 849 517 849 l 300 849 m 300 161 l 446 161 b 656 296 544 161 656 161 b 424 439 656 439 526 439 l 300 439 "},"C":{"ha":926,"x_min":0,"x_max":0,"o":"m 661 676 b 499 853 657 711 644 853 b 272 479 339 853 272 686 b 482 135 272 419 272 135 b 663 325 572 135 658 192 l 889 325 b 799 89 885 265 879 172 b 506 -24 710 -3 597 -24 b 47 481 160 -24 47 232 b 507 1010 47 799 225 1010 b 881 676 726 1010 881 876 "},"D":{"ha":1003,"x_min":0,"x_max":0,"o":"m 90 1001 l 422 1000 b 768 910 478 1000 647 999 b 939 515 894 817 939 658 b 583 11 939 207 774 46 b 403 0 546 4 504 0 l 90 0 m 308 165 b 393 163 332 164 368 163 b 626 232 485 163 564 169 b 717 515 711 317 717 467 b 533 825 717 657 668 788 b 308 839 489 838 432 844 "},"E":{"ha":849,"x_min":0,"x_max":0,"o":"m 103 1004 l 775 1004 l 775 840 l 318 840 l 318 601 l 746 601 l 746 438 l 318 438 l 318 167 l 790 167 l 790 0 l 103 0 "},"F":{"ha":772,"x_min":0,"x_max":0,"o":"m 96 1003 l 743 1003 l 743 842 l 311 842 l 311 594 l 714 594 l 714 428 l 311 428 l 311 0 l 96 0 "},"G":{"ha":1081,"x_min":0,"x_max":0,"o":"m 769 696 b 742 797 768 722 767 758 b 574 875 700 864 621 875 b 281 493 329 875 281 647 b 364 224 281 425 290 303 b 600 138 414 168 481 138 b 764 157 704 138 740 150 l 764 368 l 569 368 l 569 535 l 979 535 l 979 33 b 613 -22 917 13 814 -22 b 186 111 383 -22 265 33 b 53 486 74 221 53 381 b 579 1032 53 842 275 1032 b 921 906 708 1032 842 996 b 993 696 988 829 992 750 "},"H":{"ha":1003,"x_min":0,"x_max":0,"o":"m 93 1004 l 308 1004 l 308 603 l 688 603 l 688 1004 l 906 1004 l 906 0 l 690 0 l 690 440 l 308 440 l 308 0 l 93 0 "},"I":{"ha":386,"x_min":0,"x_max":0,"o":"m 83 1007 l 299 1007 l 299 0 l 83 0 "},"J":{"ha":772,"x_min":0,"x_max":0,"o":"m 224 325 b 342 147 226 217 253 147 b 451 232 425 147 444 206 b 460 389 460 274 460 336 l 460 1004 l 678 1004 l 678 388 b 522 33 678 233 649 111 b 328 -10 483 10 425 -10 b 65 113 219 -10 129 13 b 13 325 17 186 14 274 "},"K":{"ha":926,"x_min":0,"x_max":0,"o":"m 93 1001 l 308 1001 l 308 569 l 644 1004 l 896 1004 l 528 554 l 928 0 l 660 0 l 308 511 l 308 0 l 93 0 "},"L":{"ha":772,"x_min":0,"x_max":0,"o":"m 96 1003 l 315 1003 l 315 171 l 746 171 l 746 0 l 96 0 "},"M":{"ha":1311,"x_min":0,"x_max":0,"o":"m 83 1004 l 435 1004 l 647 274 l 876 1004 l 1218 1004 l 1218 0 l 1004 0 l 1004 861 l 731 0 l 553 0 l 285 861 l 285 0 l 83 0 "},"N":{"ha":1081,"x_min":0,"x_max":0,"o":"m 100 1004 l 411 1004 l 788 214 l 788 1004 l 988 1004 l 988 0 l 692 0 l 303 833 l 303 0 l 100 0 "},"O":{"ha":1081,"x_min":0,"x_max":0,"o":"m 58 488 b 540 1025 58 754 179 1025 b 893 889 647 1025 794 1000 b 1021 511 1000 767 1021 610 b 894 118 1021 365 976 210 b 538 -25 783 -7 621 -25 b 182 113 406 -25 274 17 b 58 488 72 229 58 396 m 283 494 b 358 214 283 399 299 292 b 540 133 389 172 440 133 b 728 226 628 133 688 164 b 796 514 761 276 796 354 b 771 693 796 563 792 632 b 542 871 729 817 644 871 b 357 786 461 871 397 838 b 283 494 300 717 283 608 "},"P":{"ha":849,"x_min":0,"x_max":0,"o":"m 90 1001 l 400 1001 b 749 892 544 1001 665 992 b 810 704 801 828 810 756 b 682 438 810 588 761 489 b 454 390 608 390 507 390 l 308 390 l 308 0 l 90 0 m 303 550 l 389 550 b 588 703 458 550 588 550 b 411 839 588 839 472 839 l 303 839 "},"Q":{"ha":1081,"x_min":0,"x_max":0,"o":"m 1057 -3 b 810 0 994 -1 875 0 b 647 -7 785 0 715 -4 b 489 -15 579 -11 513 -15 b 47 494 114 -15 47 333 b 531 1024 47 768 190 1024 b 983 518 790 1024 983 847 b 832 144 983 290 879 189 b 1057 154 878 153 971 158 m 269 507 b 515 140 269 365 311 140 b 765 521 726 140 765 360 b 703 778 765 664 733 732 b 522 871 678 817 619 871 b 269 507 333 871 269 690 "},"R":{"ha":926,"x_min":0,"x_max":0,"o":"m 83 1004 l 468 1004 b 772 936 579 1006 692 1006 b 860 743 835 882 860 808 b 650 497 860 556 699 511 b 831 267 801 483 813 397 b 861 72 846 149 854 100 b 892 0 872 28 881 17 l 654 0 b 600 349 644 56 614 310 b 492 406 581 406 528 406 l 303 406 l 303 0 l 83 0 m 296 565 l 469 565 b 579 593 494 565 544 565 b 635 710 594 604 635 639 b 582 822 635 778 601 810 b 440 846 549 846 508 846 l 296 846 "},"S":{"ha":926,"x_min":0,"x_max":0,"o":"m 268 321 b 450 131 268 274 265 131 b 640 271 567 131 640 186 b 450 406 640 360 578 375 b 81 710 211 465 81 536 b 478 1021 81 875 199 1021 b 781 903 582 1021 706 997 b 838 717 838 831 838 750 l 631 717 b 468 869 628 751 617 869 b 303 733 368 869 303 815 b 521 588 303 640 376 624 b 865 303 694 546 865 499 b 438 -24 865 122 715 -24 b 49 321 53 -24 50 224 "},"T":{"ha":849,"x_min":0,"x_max":0,"o":"m 318 838 l 19 838 l 19 1004 l 833 1004 l 833 838 l 535 838 l 535 0 l 318 0 "},"U":{"ha":1081,"x_min":0,"x_max":0,"o":"m 315 1001 l 315 390 b 533 143 315 281 324 143 b 728 231 568 143 672 144 b 760 401 749 261 760 300 l 760 1001 l 969 1001 l 969 375 b 529 -19 969 76 732 -19 b 151 154 429 -19 246 3 b 100 401 103 231 100 308 l 100 1001 "},"V":{"ha":1003,"x_min":0,"x_max":0,"o":"m 251 1000 l 514 213 l 778 1000 l 990 1000 l 621 0 l 386 0 l 17 1000 "},"W":{"ha":1389,"x_min":0,"x_max":0,"o":"m 243 1000 l 399 249 l 594 1000 l 838 1000 l 1014 249 l 1176 1000 l 1382 1000 l 1126 -3 l 888 -3 l 706 764 l 510 -3 l 265 -3 l 21 1000 "},"X":{"ha":1003,"x_min":0,"x_max":0,"o":"m 307 1004 l 510 663 l 726 1004 l 957 1004 l 626 521 l 976 0 l 713 0 l 489 378 l 249 0 l 18 0 l 371 519 l 42 1004 "},"Y":{"ha":926,"x_min":0,"x_max":0,"o":"m 274 1000 l 481 543 l 692 1000 l 913 1000 l 574 365 l 574 0 l 361 0 l 361 368 l 22 1000 "},"Z":{"ha":849,"x_min":0,"x_max":0,"o":"m 38 183 l 563 840 l 69 836 l 69 1000 l 796 1000 l 796 810 l 272 157 l 807 165 l 807 0 l 38 0 "},"[":{"ha":463,"x_min":0,"x_max":0,"o":"m 399 917 l 247 917 l 247 -42 l 399 -42 l 399 -171 l 81 -171 l 81 1044 l 399 1044 "},"\\":{"ha":386,"x_min":0,"x_max":0,"o":"m 200 997 l 576 0 l 414 0 l 40 997 "},"]":{"ha":463,"x_min":0,"x_max":0,"o":"m 64 1044 l 382 1044 l 382 -171 l 64 -171 l 64 -42 l 215 -42 l 215 917 l 64 917 "},"^":{"ha":811,"x_min":0,"x_max":0,"o":"m 322 968 l 485 968 l 736 367 l 544 367 l 401 744 l 263 367 l 71 367 "},"_":{"ha":694,"x_min":0,"x_max":0,"o":"m 0 -104 l 694 -104 l 694 -174 l 0 -174 "},"‘":{"ha":386,"x_min":0,"x_max":0,"o":"m 235 660 l 32 660 l 188 1003 l 333 1003 "},"a":{"ha":772,"x_min":0,"x_max":0,"o":"m 511 0 b 504 96 504 43 504 75 b 294 -17 426 -17 333 -17 b 119 39 193 -17 147 13 b 58 193 78 81 58 138 b 207 411 58 249 78 351 b 485 450 293 450 417 450 b 475 543 485 496 483 518 b 383 601 457 594 403 601 b 306 563 354 601 324 589 b 290 500 290 539 290 517 l 89 500 b 168 665 90 538 94 613 b 381 722 232 711 314 722 b 631 632 439 722 561 713 b 679 460 678 575 679 492 l 681 178 b 697 0 681 118 685 58 m 485 331 b 258 217 353 342 258 300 b 358 117 258 169 290 117 b 446 157 396 117 426 135 b 485 331 482 201 485 256 "},"b":{"ha":849,"x_min":0,"x_max":0,"o":"m 83 1001 l 289 1001 l 289 617 b 488 711 358 708 451 711 b 793 340 658 711 793 576 b 500 -14 793 78 640 -14 b 289 99 464 -14 353 -11 b 282 0 288 76 286 43 l 83 0 m 583 333 b 432 574 583 389 581 574 b 281 357 281 574 281 401 b 442 121 281 197 349 121 b 583 333 583 121 583 297 "},"c":{"ha":694,"x_min":0,"x_max":0,"o":"m 461 453 b 371 582 458 478 450 582 b 263 358 274 582 263 435 b 314 143 263 319 267 194 b 369 119 333 122 354 119 b 464 254 392 119 456 129 l 667 254 b 576 47 664 200 657 115 b 376 -18 526 4 464 -18 b 138 75 283 -18 201 3 b 49 351 76 146 49 239 b 376 715 49 671 283 715 b 663 453 507 715 661 643 "},"d":{"ha":849,"x_min":0,"x_max":0,"o":"m 554 1003 l 761 1003 l 761 114 b 767 0 761 72 764 26 l 558 0 l 553 101 b 482 22 539 76 525 50 b 346 -14 431 -11 376 -14 b 47 335 158 -14 47 115 b 357 711 47 567 174 711 b 554 615 483 711 536 640 m 256 340 b 397 119 256 224 294 119 b 528 199 457 119 506 156 b 561 364 558 257 561 329 b 408 576 561 501 501 576 b 256 340 271 576 256 411 "},"e":{"ha":772,"x_min":0,"x_max":0,"o":"m 256 299 b 399 111 256 253 256 111 b 521 208 450 111 501 131 l 708 208 b 642 56 706 175 699 115 b 396 -26 590 1 499 -26 b 149 61 336 -26 222 -15 b 58 335 85 128 58 222 b 204 667 58 449 86 585 b 401 725 258 703 325 725 b 685 556 501 725 621 686 b 726 299 732 460 729 357 m 517 428 b 394 585 517 460 514 585 b 263 428 304 585 267 510 "},"f":{"ha":463,"x_min":0,"x_max":0,"o":"m 104 556 l 0 556 l 0 701 l 104 701 l 104 797 b 346 1021 104 921 146 1021 b 457 1014 360 1021 399 1021 l 457 871 b 414 875 436 874 431 875 b 308 783 308 875 308 819 l 308 701 l 439 701 l 439 556 l 308 556 l 308 0 l 104 0 "},"g":{"ha":849,"x_min":0,"x_max":0,"o":"m 756 699 b 746 525 750 643 746 596 l 746 7 b 396 -276 746 -251 531 -276 b 88 -51 296 -276 100 -264 l 285 -51 b 407 -149 288 -72 297 -149 b 535 -57 468 -149 521 -119 b 544 110 543 -22 543 3 b 356 14 479 24 406 14 b 60 358 154 14 60 189 b 360 706 60 536 158 706 b 556 606 488 706 535 636 l 563 699 m 265 358 b 403 154 265 324 265 154 b 547 354 547 154 547 324 b 407 568 547 433 532 568 b 265 358 329 568 265 508 "},"h":{"ha":849,"x_min":0,"x_max":0,"o":"m 96 1003 l 300 1003 l 300 606 b 503 711 324 639 375 711 b 707 617 607 711 674 660 b 753 426 732 582 753 518 l 753 0 l 549 0 l 549 419 b 433 572 549 460 549 572 b 301 429 375 572 301 539 l 303 0 l 96 0 "},"i":{"ha":386,"x_min":0,"x_max":0,"o":"m 83 1003 l 303 1003 l 303 824 l 83 824 m 90 703 l 296 703 l 296 0 l 90 0 "},"j":{"ha":386,"x_min":0,"x_max":0,"o":"m -3 -131 b 90 -11 90 -135 90 -47 l 90 704 l 296 704 l 296 -62 b 67 -275 296 -194 242 -275 b -3 -269 56 -275 28 -275 m 83 1003 l 303 1003 l 303 824 l 83 824 "},"k":{"ha":772,"x_min":0,"x_max":0,"o":"m 93 1004 l 297 1004 l 297 413 l 510 706 l 742 706 l 501 400 l 757 0 l 514 0 l 297 382 l 297 0 l 93 0 "},"l":{"ha":386,"x_min":0,"x_max":0,"o":"m 90 1004 l 296 1004 l 296 0 l 90 0 "},"m":{"ha":1311,"x_min":0,"x_max":0,"o":"m 94 569 b 88 701 94 614 92 657 l 286 701 l 293 611 b 510 717 315 642 369 717 b 731 585 671 717 717 618 b 956 715 789 697 883 715 b 1169 603 1097 715 1154 631 b 1204 396 1207 542 1204 457 l 1204 0 l 997 0 l 997 413 b 879 571 997 488 986 571 b 753 351 756 571 753 456 l 753 0 l 546 0 l 546 417 b 431 571 546 471 544 571 b 301 413 301 571 301 460 l 301 0 l 94 0 "},"n":{"ha":849,"x_min":0,"x_max":0,"o":"m 93 576 b 89 704 93 579 93 656 l 286 704 l 292 599 b 519 721 311 631 367 721 b 733 589 657 721 715 638 b 753 379 749 546 753 510 l 753 0 l 543 0 l 543 436 b 532 513 543 465 543 490 b 432 572 517 543 485 572 b 325 518 388 572 347 551 b 300 411 313 500 300 465 l 300 0 l 93 0 "},"o":{"ha":849,"x_min":0,"x_max":0,"o":"m 58 344 b 421 718 58 514 144 718 b 785 350 675 718 785 546 b 417 -25 785 153 671 -25 b 58 344 217 -25 58 99 m 269 343 b 424 118 269 186 322 118 b 575 358 514 118 575 172 b 421 581 575 451 557 581 b 269 343 271 581 269 407 "},"p":{"ha":849,"x_min":0,"x_max":0,"o":"m 283 701 l 289 601 b 503 715 353 714 469 715 b 794 365 685 715 794 579 b 489 -10 794 167 692 -10 b 293 81 363 -10 311 57 l 293 -269 l 83 -269 l 83 701 m 436 125 b 586 357 533 125 586 218 b 444 583 586 440 565 583 b 283 344 378 583 283 533 b 436 125 283 303 285 125 "},"q":{"ha":849,"x_min":0,"x_max":0,"o":"m 768 703 b 764 568 768 690 764 596 l 764 -267 l 553 -267 l 553 82 b 358 -10 532 57 476 -10 b 50 360 217 -10 50 92 b 346 717 50 629 207 717 b 558 601 490 717 542 629 l 565 703 m 260 354 b 306 176 260 308 265 231 b 414 126 338 132 385 126 b 564 350 547 126 564 274 b 403 582 564 426 544 582 b 260 354 285 582 260 460 "},"r":{"ha":540,"x_min":0,"x_max":0,"o":"m 90 529 b 81 704 90 563 85 664 l 274 704 l 278 569 b 517 706 304 629 350 714 l 517 521 b 296 346 308 540 296 433 l 296 0 l 90 0 "},"s":{"ha":694,"x_min":0,"x_max":0,"o":"m 233 203 b 350 107 236 158 264 107 b 458 190 424 107 458 149 b 361 269 458 222 442 247 l 233 304 b 56 499 176 321 56 356 b 363 718 56 635 181 718 b 629 511 507 718 624 651 l 442 511 b 342 594 436 589 374 594 b 244 525 286 594 244 568 b 340 451 244 478 279 468 l 467 417 b 654 221 594 382 654 317 b 332 -21 654 100 550 -21 b 92 65 242 -21 156 -1 b 40 203 46 114 42 169 "},"t":{"ha":540,"x_min":0,"x_max":0,"o":"m 503 10 b 343 -12 436 -8 376 -12 b 136 176 136 -12 136 118 l 136 561 l 1 561 l 1 697 l 136 697 l 136 835 l 340 910 l 340 697 l 507 697 l 507 561 l 340 561 l 340 244 b 433 140 342 181 342 140 b 503 144 464 140 478 142 "},"u":{"ha":849,"x_min":0,"x_max":0,"o":"m 292 701 l 292 283 b 401 129 292 222 292 129 b 533 347 533 129 533 228 l 533 701 l 744 701 l 744 239 b 749 51 747 88 749 69 b 754 0 750 32 751 19 l 554 0 l 547 93 b 340 -18 526 63 474 -18 b 129 76 246 -18 168 25 b 83 265 83 133 83 231 l 83 701 "},"v":{"ha":772,"x_min":0,"x_max":0,"o":"m 229 701 l 388 225 l 549 701 l 747 701 l 494 0 l 267 0 l 10 701 "},"w":{"ha":1235,"x_min":0,"x_max":0,"o":"m 225 701 l 354 172 l 503 701 l 729 701 l 876 172 l 1014 701 l 1218 701 l 978 0 l 754 0 l 610 519 l 463 0 l 236 0 l 7 701 "},"x":{"ha":772,"x_min":0,"x_max":0,"o":"m 265 701 l 397 472 l 535 701 l 749 701 l 521 360 l 756 0 l 513 0 l 371 257 l 228 0 l 13 0 l 247 376 l 22 701 "},"y":{"ha":772,"x_min":0,"x_max":0,"o":"m 242 701 l 396 215 l 553 701 l 757 701 l 492 13 l 407 -267 l 200 -267 l 289 -3 l 19 701 "},"z":{"ha":694,"x_min":0,"x_max":0,"o":"m 44 181 l 400 564 l 54 564 l 54 701 l 629 701 l 629 525 l 274 142 l 643 142 l 643 0 l 44 0 "},"{":{"ha":463,"x_min":0,"x_max":0,"o":"m 143 672 b 483 1004 143 825 150 988 l 483 890 b 329 681 329 878 329 767 l 329 631 b 110 376 329 508 294 392 b 272 310 154 371 221 364 b 329 122 324 258 329 189 l 329 71 b 483 -137 329 -14 329 -129 l 483 -251 b 213 -164 354 -246 272 -221 b 143 81 168 -124 143 -79 l 143 129 b -21 317 143 201 143 292 l -21 436 b 94 483 6 439 58 451 b 143 624 132 517 143 554 "},"|":{"ha":386,"x_min":0,"x_max":0,"o":"m 285 1042 l 285 -347 l 101 -347 l 101 1042 "},"}":{"ha":463,"x_min":0,"x_max":0,"o":"m 319 81 b -21 -251 319 -72 314 -235 l -21 -137 b 133 71 133 -129 133 -15 l 133 122 b 190 310 133 178 136 254 b 353 376 242 364 308 371 b 188 450 304 381 243 386 b 133 631 154 488 133 526 l 133 681 b -21 890 133 767 133 878 l -21 1004 b 319 672 308 988 319 829 l 319 624 b 364 485 319 560 331 518 b 483 436 399 451 463 439 l 483 317 b 319 129 324 290 319 200 "},"~":{"ha":811,"x_min":0,"x_max":0,"o":"m 25 240 b 240 504 35 404 126 504 b 388 469 272 504 304 494 b 589 418 526 426 551 418 b 669 501 656 418 667 483 l 788 501 b 571 236 779 393 732 236 b 322 301 524 236 431 267 b 224 325 304 307 251 325 b 142 240 176 325 149 288 "},"¡":{"ha":540,"x_min":0,"x_max":0,"o":"m 350 468 l 376 -264 l 190 -264 l 207 468 m 367 556 l 190 556 l 190 742 l 367 742 "},"¢":{"ha":772,"x_min":0,"x_max":0,"o":"m 558 686 b 701 453 700 632 701 499 l 501 453 b 413 582 500 478 493 582 b 301 356 308 582 301 414 b 408 119 301 247 328 119 b 504 254 436 119 497 136 l 707 254 b 574 18 703 203 696 83 b 381 -17 496 -24 413 -19 l 333 -206 l 239 -206 l 290 1 b 88 347 201 26 88 136 b 422 714 88 560 201 714 b 468 711 447 714 458 713 l 513 885 l 608 885 "},"£":{"ha":772,"x_min":0,"x_max":0,"o":"m 42 161 l 143 161 l 143 449 l 26 449 l 26 604 l 144 604 l 144 726 b 246 947 144 779 146 879 b 465 1007 286 975 349 1007 b 750 749 725 1007 742 844 l 542 749 b 450 867 540 782 536 867 b 357 746 357 867 357 768 l 357 604 l 592 604 l 592 449 l 357 449 l 357 161 l 724 161 l 724 0 l 42 0 "},"⁄":{"ha":232,"x_min":0,"x_max":0,"o":"m 347 1007 l 461 1007 l -118 -39 l -232 -39 "},"¥":{"ha":772,"x_min":0,"x_max":0,"o":"m 283 190 l 57 190 l 57 293 l 283 293 l 283 392 l 57 392 l 57 494 l 231 494 l 0 1000 l 251 1000 l 401 543 l 556 1000 l 778 1000 l 550 494 l 715 494 l 715 392 l 494 392 l 494 294 l 715 294 l 715 192 l 496 192 l 494 0 l 283 0 "},"ƒ":{"ha":772,"x_min":0,"x_max":0,"o":"m 71 -58 b 97 -61 79 -60 88 -61 b 168 0 153 -61 163 -29 l 264 486 l 174 486 l 200 626 l 292 626 l 307 706 b 546 972 342 872 375 972 b 660 963 589 972 622 968 l 629 810 b 504 701 528 824 518 774 l 489 626 l 589 626 l 568 486 l 463 486 l 358 -35 b 286 -178 347 -89 336 -144 b 125 -222 257 -197 207 -222 b 42 -215 115 -222 83 -222 "},"§":{"ha":772,"x_min":0,"x_max":0,"o":"m 129 169 b 328 110 168 149 244 110 b 444 183 388 110 444 129 b 364 257 444 229 400 244 l 242 300 b 100 486 140 335 100 415 b 226 661 100 550 135 625 b 121 817 197 674 121 711 b 388 1011 121 938 228 1011 b 601 969 496 1011 568 982 l 597 826 b 394 881 553 846 474 881 b 333 864 381 881 351 879 b 314 821 322 854 314 838 b 376 750 314 776 360 757 l 499 710 b 640 531 608 674 640 606 b 525 357 640 440 585 385 b 642 190 579 329 642 278 b 363 -28 642 61 528 -28 b 125 14 342 -28 246 -26 m 371 406 b 467 518 444 432 467 485 b 364 611 467 589 394 606 b 265 508 311 596 265 564 b 371 406 265 442 332 418 "},"¤":{"ha":772,"x_min":0,"x_max":0,"o":"m 121 328 b 76 483 103 358 76 406 b 121 640 76 560 104 610 l 26 733 l 135 842 l 228 749 b 382 792 269 769 315 792 b 542 747 456 792 507 765 l 633 840 l 740 733 l 649 640 b 692 483 665 610 692 561 b 649 326 692 403 663 351 l 742 235 l 633 126 l 540 219 b 385 176 508 201 463 176 b 228 219 308 176 258 203 l 135 126 l 28 235 m 385 631 b 238 483 303 631 238 565 b 385 336 238 403 303 336 b 532 483 465 336 532 403 b 385 631 532 565 465 631 "},"'":{"ha":331,"x_min":0,"x_max":0,"o":"m 71 968 l 256 968 l 218 624 l 108 624 "},"“":{"ha":772,"x_min":0,"x_max":0,"o":"m 290 660 l 89 660 l 244 1003 l 389 1003 m 563 660 l 360 660 l 515 1003 l 661 1003 "},"«":{"ha":772,"x_min":0,"x_max":0,"o":"m 39 350 l 190 614 l 374 614 l 242 350 l 374 78 l 190 78 m 376 350 l 528 614 l 711 614 l 579 350 l 711 78 l 528 78 "},"‹":{"ha":386,"x_min":0,"x_max":0,"o":"m 24 350 l 175 614 l 358 614 l 226 350 l 358 78 l 175 78 "},"›":{"ha":386,"x_min":0,"x_max":0,"o":"m 197 614 l 349 340 l 197 78 l 14 78 l 146 340 l 14 614 "},"ﬁ":{"ha":849,"x_min":0,"x_max":0,"o":"m 108 556 l 3 556 l 3 701 l 108 701 l 108 797 b 349 1021 108 921 149 1021 b 460 1014 364 1021 403 1021 l 460 871 b 417 875 439 874 433 875 b 313 783 313 875 313 819 l 313 701 l 442 701 l 442 556 l 313 556 l 313 0 l 108 0 m 546 1003 l 765 1003 l 765 824 l 546 824 m 553 703 l 758 703 l 758 0 l 553 0 "},"ﬂ":{"ha":849,"x_min":0,"x_max":0,"o":"m 111 556 l 7 556 l 7 701 l 111 701 l 111 797 b 353 1021 111 921 153 1021 b 463 1014 367 1021 406 1021 l 463 871 b 421 875 443 874 438 875 b 315 783 315 875 315 819 l 315 701 l 446 701 l 446 556 l 315 556 l 315 0 l 111 0 m 553 1004 l 758 1004 l 758 0 l 553 0 "},"–":{"ha":694,"x_min":0,"x_max":0,"o":"m 0 431 l 694 431 l 694 296 l 0 296 "},"†":{"ha":772,"x_min":0,"x_max":0,"o":"m 74 646 l 74 785 l 297 785 l 297 1003 l 467 1003 l 467 785 l 685 785 l 685 646 l 467 646 l 467 0 l 297 0 l 297 646 "},"‡":{"ha":772,"x_min":0,"x_max":0,"o":"m 688 794 l 688 660 l 467 660 l 467 347 l 688 347 l 688 213 l 467 213 l 467 0 l 297 0 l 297 213 l 78 213 l 78 347 l 297 347 l 297 660 l 74 660 l 74 794 l 297 794 l 297 1003 l 467 1003 l 467 794 "},"·":{"ha":386,"x_min":0,"x_max":0,"o":"m 103 481 l 279 481 l 279 296 l 103 296 "},"¶":{"ha":772,"x_min":0,"x_max":0,"o":"m 722 846 l 722 -260 l 549 -260 l 549 846 l 417 846 l 417 -260 l 243 -260 l 243 331 b 67 399 196 335 129 342 b -31 642 -15 472 -31 576 b 336 989 -31 810 74 989 l 793 989 l 793 846 "},"•":{"ha":486,"x_min":0,"x_max":0,"o":"m 243 753 b 494 503 381 753 494 643 b 243 251 494 364 382 251 b -8 503 104 251 -8 364 b 243 753 -8 643 106 753 "},"‚":{"ha":386,"x_min":0,"x_max":0,"o":"m 347 185 l 182 -157 l 39 -157 l 142 185 "},"„":{"ha":772,"x_min":0,"x_max":0,"o":"m 94 -157 l 193 185 l 392 185 l 238 -157 m 371 -157 l 469 185 l 668 185 l 514 -157 "},"”":{"ha":772,"x_min":0,"x_max":0,"o":"m 192 1003 l 394 1003 l 238 660 l 93 660 m 463 1003 l 665 1003 l 510 660 l 365 660 "},"»":{"ha":772,"x_min":0,"x_max":0,"o":"m 44 78 l 176 340 l 44 614 l 228 614 l 379 340 l 228 78 m 382 78 l 514 340 l 382 614 l 565 614 l 717 340 l 565 78 "},"…":{"ha":1389,"x_min":0,"x_max":0,"o":"m 163 185 l 339 185 l 339 0 l 163 0 m 607 185 l 783 185 l 783 0 l 607 0 m 1051 185 l 1228 185 l 1228 0 l 1051 0 "},"‰":{"ha":1389,"x_min":0,"x_max":0,"o":"m 707 465 b 904 243 849 465 904 378 b 710 -12 904 160 899 -12 b 514 224 560 -12 514 94 b 707 465 514 358 557 465 m 710 94 b 769 229 756 94 769 133 b 713 360 769 303 763 360 b 653 218 657 360 653 299 b 710 94 653 143 660 94 m 1174 465 b 1372 243 1317 465 1372 378 b 1178 -12 1372 160 1367 -12 b 981 224 1028 -12 981 94 b 1174 465 981 358 1024 465 m 1178 94 b 1236 229 1224 94 1236 133 b 1179 360 1236 303 1231 360 b 1119 218 1125 360 1119 299 b 1178 94 1119 143 1128 94 m 204 999 b 401 778 347 999 401 913 b 208 521 401 693 397 521 b 11 758 58 521 11 628 b 204 999 11 893 54 999 m 208 628 b 267 763 254 628 267 667 b 210 894 267 836 261 894 b 150 751 156 894 150 832 b 208 628 150 678 158 628 m 106 -22 l 699 1010 l 800 1010 l 210 -22 "},"¿":{"ha":694,"x_min":0,"x_max":0,"o":"m 489 508 l 489 379 b 438 257 489 349 489 315 l 376 189 b 271 -12 321 125 271 57 b 438 -150 271 -46 283 -150 b 622 -117 501 -150 546 -137 l 622 -262 b 389 -289 571 -275 499 -289 b 58 -29 224 -289 58 -215 b 96 103 58 -3 60 51 b 169 192 139 164 154 178 l 247 263 b 332 396 322 329 332 350 l 332 508 m 493 567 l 326 567 l 326 733 l 493 733 "},"`":{"ha":386,"x_min":0,"x_max":0,"o":"m 294 813 l 176 813 l -17 1014 l 178 1014 "},"´":{"ha":386,"x_min":0,"x_max":0,"o":"m 211 813 l 100 813 l 215 1014 l 401 1014 "},"ˆ":{"ha":386,"x_min":0,"x_max":0,"o":"m 122 1014 l 265 1014 l 410 813 l 286 813 l 192 931 l 94 813 l -31 813 "},"˜":{"ha":386,"x_min":0,"x_max":0,"o":"m -58 824 b 106 994 -43 926 22 994 b 175 979 135 994 172 981 l 254 949 b 301 940 263 946 278 940 b 367 1004 342 940 360 969 l 438 1004 b 382 875 432 954 421 911 b 282 835 361 854 329 835 b 210 850 251 835 225 844 l 150 872 b 88 886 133 878 106 886 b 14 824 64 886 32 876 "},"¯":{"ha":386,"x_min":0,"x_max":0,"o":"m -50 867 l -50 961 l 425 961 l 425 867 "},"˘":{"ha":386,"x_min":0,"x_max":0,"o":"m 65 1014 b 189 903 79 922 144 903 b 318 1014 288 903 308 976 l 403 1014 b 188 813 396 904 324 813 b 18 889 118 813 56 839 b -19 1014 -17 933 -18 982 "},"˙":{"ha":386,"x_min":0,"x_max":0,"o":"m 122 996 l 264 996 l 264 832 l 122 832 "},"¨":{"ha":386,"x_min":0,"x_max":0,"o":"m 239 996 l 381 996 l 381 832 l 239 832 m 0 996 l 142 996 l 142 832 l 0 832 "},"˚":{"ha":386,"x_min":0,"x_max":0,"o":"m 193 1056 b 333 914 274 1056 333 990 b 193 772 333 838 272 772 b 53 914 117 772 53 835 b 193 1056 53 992 115 1056 m 193 989 b 119 914 153 989 119 956 b 193 840 119 874 153 840 b 268 914 235 840 268 874 b 193 989 268 954 236 989 "},"¸":{"ha":386,"x_min":0,"x_max":0,"o":"m 50 -212 b 147 -237 82 -226 118 -237 b 224 -185 194 -237 224 -215 b 163 -133 224 -165 210 -133 b 106 -146 136 -133 119 -140 l 78 -117 l 167 8 l 232 8 l 165 -81 b 214 -75 181 -78 192 -75 b 331 -175 306 -75 331 -137 b 156 -301 331 -276 219 -301 b 21 -271 92 -301 39 -279 "},"˝":{"ha":772,"x_min":0,"x_max":0,"o":"m 275 813 l 164 813 l 281 1014 l 467 1014 m 532 813 l 421 813 l 538 1014 l 724 1014 "},"˛":{"ha":386,"x_min":0,"x_max":0,"o":"m 322 -265 b 193 -301 296 -281 258 -301 b 60 -197 107 -301 60 -257 b 225 1 60 -115 131 -42 l 285 1 b 181 -135 226 -39 181 -74 b 265 -221 181 -221 254 -221 b 322 -204 293 -221 307 -212 "},"ˇ":{"ha":386,"x_min":0,"x_max":0,"o":"m 422 1014 l 275 813 l 113 813 l -32 1014 l 99 1014 l 196 888 l 293 1014 "},"—":{"ha":1389,"x_min":0,"x_max":0,"o":"m 181 431 l 1208 431 l 1208 296 l 181 296 "},"Æ":{"ha":1389,"x_min":0,"x_max":0,"o":"m 544 1001 l 1304 1001 l 1304 839 l 839 839 l 875 592 l 1279 592 l 1279 431 l 897 431 l 936 167 l 1317 167 l 1317 0 l 739 0 l 708 218 l 331 218 l 221 0 l -11 0 m 688 376 l 629 813 l 415 376 "},"ª":{"ha":464,"x_min":0,"x_max":0,"o":"m 321 544 b 317 603 317 572 317 589 b 181 535 296 574 264 535 b 26 660 58 535 26 607 b 138 797 26 721 68 776 b 304 814 199 814 264 814 b 239 906 304 851 304 906 b 178 844 215 906 178 894 l 47 844 b 236 978 47 954 158 978 b 431 821 388 978 431 908 l 431 651 b 442 544 431 619 435 575 m 304 743 b 157 674 222 749 157 728 b 224 615 157 640 183 615 b 304 743 303 615 304 703 "},"Ł":{"ha":772,"x_min":0,"x_max":0,"o":"m 96 401 l 4 349 l 4 489 l 97 544 l 96 1003 l 315 1003 l 315 668 l 558 810 l 558 665 l 315 525 l 315 171 l 746 171 l 746 0 l 96 0 "},"Ø":{"ha":1081,"x_min":0,"x_max":0,"o":"m 986 1063 l 1051 997 l 919 853 b 1018 507 993 754 1018 631 b 539 -25 1018 146 808 -25 b 208 85 419 -25 299 7 l 69 -65 l 3 0 l 146 154 b 56 488 78 250 56 369 b 538 1025 56 706 142 1025 b 856 922 653 1025 768 997 m 726 783 b 538 875 663 869 569 875 b 324 742 451 875 368 832 b 282 494 289 668 282 551 b 303 326 282 397 296 349 m 344 231 b 539 132 363 203 410 132 b 793 518 735 132 793 307 b 771 693 793 576 788 638 "},"Œ":{"ha":1389,"x_min":0,"x_max":0,"o":"m 1321 842 l 911 842 l 911 592 l 1308 592 l 1308 431 l 910 431 l 910 167 l 1338 167 l 1338 0 l 656 0 b 172 128 471 0 300 0 b 44 490 58 240 44 414 b 343 974 44 715 146 919 b 656 1003 450 1003 503 1003 l 1321 1003 m 694 853 b 414 817 540 853 481 849 b 267 485 307 767 267 632 b 694 154 267 146 494 149 "},"º":{"ha":510,"x_min":0,"x_max":0,"o":"m 19 751 b 256 975 19 886 107 975 b 492 754 414 975 492 879 b 253 529 492 633 414 529 b 19 751 78 529 19 649 m 157 750 b 256 615 157 660 189 615 b 356 757 322 615 356 657 b 257 893 356 840 329 893 b 157 750 165 893 157 806 "},"æ":{"ha":1235,"x_min":0,"x_max":0,"o":"m 1164 217 b 1104 71 1160 183 1151 128 b 871 -21 1049 4 958 -21 b 603 108 688 -21 624 76 b 322 -26 553 49 482 -26 b 53 193 139 -26 53 68 b 175 394 53 235 63 340 b 514 440 265 439 401 439 b 397 603 518 531 492 603 b 289 504 349 603 293 581 l 90 504 b 372 722 104 668 225 722 b 622 613 533 722 596 644 b 869 722 651 647 714 722 b 1129 586 983 722 1075 672 b 1182 321 1185 497 1182 376 l 713 321 b 736 183 713 294 713 231 b 856 111 761 131 814 111 b 971 217 946 111 963 182 m 969 440 b 849 600 969 476 968 600 b 711 440 726 600 714 475 m 513 321 b 451 324 493 324 474 324 b 251 203 413 324 251 324 b 360 106 251 140 306 106 b 485 179 399 106 457 124 b 513 321 506 221 510 279 "},"ı":{"ha":386,"x_min":0,"x_max":0,"o":"m 90 703 l 296 703 l 296 0 l 90 0 "},"ł":{"ha":386,"x_min":0,"x_max":0,"o":"m 90 407 l 17 363 l 17 506 l 90 551 l 90 1004 l 296 1004 l 296 676 l 369 722 l 369 576 l 296 532 l 296 0 l 90 0 "},"ø":{"ha":849,"x_min":0,"x_max":0,"o":"m 807 711 l 703 603 b 782 349 729 569 782 503 b 421 -22 782 146 671 -22 b 174 58 265 -22 207 29 l 69 -50 l 13 -3 l 124 117 b 57 343 100 151 57 217 b 418 717 57 572 194 717 b 647 654 499 717 581 700 l 750 760 m 531 535 b 421 581 489 581 435 581 b 269 353 271 581 269 403 b 275 271 269 315 272 289 m 300 188 b 419 118 314 163 340 118 b 572 343 560 118 572 247 b 564 458 572 399 568 436 "},"œ":{"ha":1311,"x_min":0,"x_max":0,"o":"m 1249 217 b 1151 38 1238 140 1210 83 b 946 -24 1085 -14 1001 -24 b 683 104 786 -24 731 44 b 408 -25 600 3 515 -25 b 58 347 140 -25 58 171 b 414 718 58 646 278 718 b 683 589 586 718 656 625 b 939 721 707 626 768 721 b 1211 579 1011 721 1136 701 b 1260 304 1261 496 1260 369 l 794 304 b 936 106 794 221 817 106 b 1056 217 997 106 1040 140 m 1056 432 b 935 592 1056 483 1054 592 b 794 432 860 592 806 540 m 424 111 b 586 361 575 111 586 263 b 425 585 586 419 586 585 b 267 347 299 585 267 469 b 424 111 267 186 318 111 "},"ß":{"ha":926,"x_min":0,"x_max":0,"o":"m 82 749 b 201 983 82 910 179 971 b 424 1031 268 1022 346 1031 b 746 822 576 1031 746 972 b 618 644 746 757 722 713 b 575 579 597 631 575 617 b 640 507 575 560 582 540 l 749 442 b 875 231 807 408 875 361 b 596 -22 875 -10 681 -22 b 350 200 510 -22 364 -11 l 532 200 b 554 136 532 172 540 150 b 604 115 567 122 586 115 b 682 214 639 115 682 143 b 603 338 682 258 668 299 l 494 403 b 381 553 419 447 381 476 b 485 728 381 607 397 656 b 540 817 515 754 540 778 b 433 903 540 863 504 903 b 310 843 357 903 321 858 b 283 729 283 806 283 754 l 283 0 l 82 0 "},"¹":{"ha":463,"x_min":0,"x_max":0,"o":"m 67 885 b 233 972 146 915 211 957 l 350 972 l 350 390 l 214 390 l 214 843 b 67 768 165 811 110 783 "},"¬":{"ha":811,"x_min":0,"x_max":0,"o":"m 33 622 l 774 622 l 774 118 l 588 118 l 588 442 l 33 442 "},"µ":{"ha":849,"x_min":0,"x_max":0,"o":"m 99 701 l 276 701 l 276 363 b 408 136 276 233 288 136 b 544 358 540 136 544 264 l 544 701 l 724 701 l 724 0 l 571 0 l 571 83 b 413 -12 549 49 508 -12 b 272 57 325 -12 292 32 l 272 -294 l 97 -294 "},"™":{"ha":1389,"x_min":0,"x_max":0,"o":"m 618 1004 l 788 1004 l 889 638 l 999 1004 l 1163 1004 l 1163 503 l 1060 503 l 1060 933 l 929 503 l 843 503 l 714 933 l 714 503 l 618 503 m 293 921 l 117 921 l 117 1004 l 574 1004 l 574 921 l 399 921 l 399 503 l 293 503 "},"Ð":{"ha":1003,"x_min":0,"x_max":0,"o":"m 90 490 l 0 490 l 0 611 l 90 611 l 90 1001 l 422 1000 b 768 910 478 1000 647 999 b 939 515 894 817 939 658 b 583 11 939 207 774 46 b 403 0 546 4 504 0 l 90 0 m 308 165 b 393 163 332 164 368 163 b 626 232 485 163 564 169 b 717 515 711 317 717 467 b 533 825 717 657 668 788 b 308 839 489 838 432 844 l 308 611 l 510 611 l 510 490 l 308 490 "},"½":{"ha":1158,"x_min":0,"x_max":0,"o":"m 774 1007 l 888 1007 l 308 -39 l 194 -39 m 31 885 b 197 972 110 915 175 957 l 314 972 l 314 390 l 178 390 l 178 843 b 31 768 129 811 74 783 m 693 417 b 731 525 693 440 693 483 b 911 589 771 572 846 589 b 1122 431 1042 589 1122 524 b 996 231 1122 365 1097 326 b 825 90 938 175 890 140 b 1126 96 897 93 1026 94 l 1126 0 l 685 0 l 685 118 l 849 254 b 961 367 893 292 929 326 b 986 431 982 394 986 415 b 914 501 986 469 957 501 b 831 417 857 501 833 461 "},"±":{"ha":811,"x_min":0,"x_max":0,"o":"m 313 389 l 36 389 l 36 569 l 313 569 l 313 786 l 499 786 l 499 569 l 775 569 l 775 389 l 499 389 l 499 182 l 313 182 m 36 135 l 775 135 l 775 -46 l 36 -46 "},"Þ":{"ha":849,"x_min":0,"x_max":0,"o":"m 90 1001 l 303 1001 l 303 849 l 400 849 b 732 757 533 849 650 840 b 810 547 782 707 810 642 b 682 283 810 443 768 342 b 444 236 614 236 504 236 l 308 236 l 308 0 l 90 0 m 303 396 l 389 396 b 519 417 421 396 485 396 b 588 550 571 446 588 506 b 411 685 588 685 469 685 l 303 685 "},"¼":{"ha":1158,"x_min":0,"x_max":0,"o":"m 675 126 l 675 239 l 928 582 l 1064 582 l 1061 222 l 1147 222 l 1147 126 l 1060 126 l 1060 0 l 924 0 l 924 126 m 776 219 l 931 219 l 936 438 m 775 1007 l 890 1007 l 311 -39 l 197 -39 m 13 885 b 179 972 92 915 157 957 l 296 972 l 296 390 l 160 390 l 160 843 b 13 768 111 811 56 783 "},"÷":{"ha":811,"x_min":0,"x_max":0,"o":"m 29 460 l 769 460 l 769 281 l 29 281 m 296 210 l 503 210 l 503 6 l 296 6 m 296 735 l 503 735 l 503 531 l 296 531 "},"¦":{"ha":386,"x_min":0,"x_max":0,"o":"m 285 938 l 285 451 l 101 451 l 101 938 m 285 243 l 285 -243 l 101 -243 l 101 243 "},"°":{"ha":556,"x_min":0,"x_max":0,"o":"m 275 983 b 510 749 404 983 510 879 b 275 514 510 618 406 514 b 40 749 146 514 40 618 b 275 983 40 879 147 983 m 275 840 b 183 749 226 840 183 800 b 275 657 183 697 225 657 b 368 749 328 657 368 699 b 275 840 368 799 326 840 "},"þ":{"ha":849,"x_min":0,"x_max":0,"o":"m 267 1004 l 267 601 b 478 715 329 714 444 715 b 769 364 665 715 769 572 b 465 -10 769 163 663 -10 b 267 81 338 -10 286 54 l 267 -269 l 58 -269 l 58 1004 m 411 125 b 560 357 540 125 560 283 b 417 583 560 415 549 583 b 304 526 371 583 328 560 b 258 344 275 486 258 429 b 411 125 258 272 271 125 "},"¾":{"ha":1158,"x_min":0,"x_max":0,"o":"m 658 126 l 658 239 l 911 582 l 1049 582 l 1044 222 l 1131 222 l 1131 126 l 1044 126 l 1044 0 l 907 0 l 907 126 m 750 219 l 904 219 l 908 374 b 910 438 908 382 908 428 m 836 1007 l 950 1007 l 372 -39 l 258 -39 m 169 549 b 253 471 172 531 178 471 b 332 550 290 471 332 492 b 178 636 332 636 250 636 l 178 733 b 335 819 247 735 335 742 b 256 889 335 865 297 889 b 178 817 210 889 178 858 l 42 817 b 78 915 44 843 47 882 b 256 979 104 944 163 979 b 465 821 400 979 465 893 b 344 689 465 724 374 697 b 471 550 439 663 471 610 b 243 378 471 450 372 378 b 71 436 217 378 118 381 b 33 549 35 478 33 522 "},"²":{"ha":463,"x_min":0,"x_max":0,"o":"m 18 813 b 54 921 18 836 18 878 b 236 985 96 967 169 985 b 447 826 367 985 447 919 b 321 626 447 760 422 721 b 150 486 263 571 215 535 b 451 492 222 488 351 490 l 451 396 l 10 396 l 10 513 l 172 650 b 286 763 218 688 254 721 b 311 826 307 790 311 811 b 238 897 311 865 282 897 b 156 813 182 897 158 857 "},"®":{"ha":1111,"x_min":0,"x_max":0,"o":"m 556 1025 b 1081 500 839 1025 1081 797 b 556 -25 1081 211 844 -25 b 31 500 269 -25 31 208 b 556 1025 31 797 275 1025 m 554 940 b 115 501 315 940 115 749 b 554 60 115 257 313 60 b 996 501 799 60 996 261 b 554 940 996 746 796 940 m 358 794 l 561 794 b 767 639 631 794 767 794 b 656 494 767 531 697 508 b 753 361 736 489 742 436 b 783 206 758 314 767 233 l 658 206 b 636 392 656 233 636 383 b 575 442 628 425 617 442 l 472 442 l 472 206 l 358 206 m 469 536 l 561 536 b 650 619 636 536 650 589 b 564 700 650 700 594 700 l 469 700 "},"−":{"ha":811,"x_min":0,"x_max":0,"o":"m 36 460 l 775 460 l 775 281 l 36 281 "},"ð":{"ha":849,"x_min":0,"x_max":0,"o":"m 292 865 b 156 926 256 883 222 900 l 265 1051 b 439 964 374 1003 413 979 l 549 1039 l 610 992 l 504 921 b 783 386 604 847 783 700 b 422 -19 783 156 681 -19 b 189 44 349 -19 258 -8 b 67 328 101 108 67 218 b 389 674 67 588 256 674 b 572 610 489 674 546 631 b 361 824 532 676 483 743 l 233 736 l 172 783 m 429 113 b 579 342 560 113 579 244 b 429 556 579 413 567 556 b 275 328 275 556 275 369 b 429 113 275 219 306 113 "},"×":{"ha":811,"x_min":0,"x_max":0,"o":"m 278 369 l 46 603 l 174 731 l 406 497 l 638 731 l 765 603 l 533 369 l 765 138 l 638 10 l 406 243 l 174 10 l 46 138 "},"³":{"ha":463,"x_min":0,"x_max":0,"o":"m 146 549 b 228 471 147 531 153 471 b 308 550 265 471 308 492 b 154 636 308 636 225 636 l 154 733 b 310 819 222 735 310 742 b 231 889 310 865 272 889 b 154 817 185 889 153 858 l 17 817 b 53 915 19 843 22 882 b 231 979 79 944 138 979 b 440 821 375 979 440 893 b 319 689 440 724 349 697 b 446 550 414 663 446 610 b 218 378 446 450 347 378 b 46 436 192 378 93 381 b 8 549 10 478 8 522 "},"©":{"ha":1111,"x_min":0,"x_max":0,"o":"m 553 1025 b 1078 500 839 1025 1078 794 b 553 -25 1078 210 843 -25 b 29 500 264 -25 29 210 b 553 1025 29 794 268 1025 m 553 939 b 114 500 313 939 114 744 b 553 61 114 258 310 61 b 993 500 797 61 993 260 b 553 939 993 743 794 939 m 665 610 b 561 717 664 631 654 717 b 415 497 415 717 415 535 b 556 283 415 461 415 283 b 667 397 607 283 664 315 l 813 397 b 750 251 810 364 806 304 b 567 188 697 203 632 188 b 272 492 347 188 272 339 b 567 811 272 683 386 811 b 807 610 707 811 806 732 "},"Á":{"ha":1003,"x_min":0,"x_max":0,"o":"m 625 1004 l 974 0 l 757 0 l 685 217 l 288 217 l 213 0 l 7 0 l 369 1004 m 631 379 l 492 807 l 343 379 m 519 1074 l 408 1074 l 524 1275 l 710 1275 "},"Â":{"ha":1003,"x_min":0,"x_max":0,"o":"m 625 1004 l 974 0 l 757 0 l 685 217 l 288 217 l 213 0 l 7 0 l 369 1004 m 631 379 l 492 807 l 343 379 m 431 1275 l 574 1275 l 718 1074 l 594 1074 l 500 1192 l 403 1074 l 278 1074 "},"Ä":{"ha":1003,"x_min":0,"x_max":0,"o":"m 625 1004 l 974 0 l 757 0 l 685 217 l 288 217 l 213 0 l 7 0 l 369 1004 m 631 379 l 492 807 l 343 379 m 547 1243 l 689 1243 l 689 1079 l 547 1079 m 308 1243 l 450 1243 l 450 1079 l 308 1079 "},"À":{"ha":1003,"x_min":0,"x_max":0,"o":"m 625 1004 l 974 0 l 757 0 l 685 217 l 288 217 l 213 0 l 7 0 l 369 1004 m 631 379 l 492 807 l 343 379 m 603 1074 l 485 1074 l 292 1275 l 486 1275 "},"Å":{"ha":1003,"x_min":0,"x_max":0,"o":"m 625 1004 l 974 0 l 757 0 l 685 217 l 288 217 l 213 0 l 7 0 l 369 1004 m 631 379 l 492 807 l 343 379 m 501 1303 b 642 1161 582 1303 642 1238 b 501 1019 642 1085 581 1019 b 361 1161 425 1019 361 1082 b 501 1303 361 1239 424 1303 m 501 1236 b 428 1161 461 1236 428 1203 b 501 1088 428 1121 461 1088 b 576 1161 543 1088 576 1121 b 501 1236 576 1201 544 1236 "},"Ã":{"ha":1003,"x_min":0,"x_max":0,"o":"m 625 1004 l 974 0 l 757 0 l 685 217 l 288 217 l 213 0 l 7 0 l 369 1004 m 631 379 l 492 807 l 343 379 m 250 1085 b 414 1256 265 1188 331 1256 b 483 1240 443 1256 481 1242 l 563 1210 b 610 1201 571 1207 586 1201 b 675 1265 650 1201 668 1231 l 746 1265 b 690 1136 740 1215 729 1172 b 590 1096 669 1115 638 1096 b 518 1111 560 1096 533 1106 l 458 1133 b 396 1147 442 1139 414 1147 b 322 1085 372 1147 340 1138 "},"Ç":{"ha":926,"x_min":0,"x_max":0,"o":"m 889 325 b 735 36 885 256 876 126 b 507 -24 646 -19 551 -24 l 460 -86 b 510 -81 475 -83 486 -81 b 625 -181 601 -81 625 -143 b 450 -307 625 -282 514 -307 b 315 -276 386 -307 333 -285 l 344 -218 b 442 -243 378 -232 413 -243 b 519 -190 489 -243 519 -221 b 457 -139 519 -171 504 -139 b 400 -151 431 -139 414 -146 l 372 -122 l 444 -19 b 169 107 315 -7 229 40 b 47 481 68 222 47 368 b 507 1010 47 799 225 1010 b 881 676 726 1010 881 876 l 661 676 b 499 853 657 711 644 853 b 272 479 339 853 272 686 b 482 135 272 419 272 135 b 663 325 572 135 658 192 "},"É":{"ha":849,"x_min":0,"x_max":0,"o":"m 103 1004 l 775 1004 l 775 840 l 318 840 l 318 601 l 746 601 l 746 438 l 318 438 l 318 167 l 790 167 l 790 0 l 103 0 m 443 1074 l 332 1074 l 447 1275 l 633 1275 "},"Ê":{"ha":849,"x_min":0,"x_max":0,"o":"m 103 1004 l 775 1004 l 775 840 l 318 840 l 318 601 l 746 601 l 746 438 l 318 438 l 318 167 l 790 167 l 790 0 l 103 0 m 354 1275 l 497 1275 l 642 1074 l 518 1074 l 424 1192 l 326 1074 l 201 1074 "},"Ë":{"ha":849,"x_min":0,"x_max":0,"o":"m 103 1004 l 775 1004 l 775 840 l 318 840 l 318 601 l 746 601 l 746 438 l 318 438 l 318 167 l 790 167 l 790 0 l 103 0 m 471 1243 l 613 1243 l 613 1079 l 471 1079 m 232 1243 l 374 1243 l 374 1079 l 232 1079 "},"È":{"ha":849,"x_min":0,"x_max":0,"o":"m 103 1004 l 775 1004 l 775 840 l 318 840 l 318 601 l 746 601 l 746 438 l 318 438 l 318 167 l 790 167 l 790 0 l 103 0 m 526 1074 l 408 1074 l 215 1275 l 410 1275 "},"Í":{"ha":386,"x_min":0,"x_max":0,"o":"m 83 1007 l 299 1007 l 299 0 l 83 0 m 211 1074 l 100 1074 l 215 1275 l 401 1275 "},"Î":{"ha":386,"x_min":0,"x_max":0,"o":"m 83 1007 l 299 1007 l 299 0 l 83 0 m 122 1275 l 265 1275 l 410 1074 l 286 1074 l 192 1192 l 94 1074 l -31 1074 "},"Ï":{"ha":386,"x_min":0,"x_max":0,"o":"m 83 1007 l 299 1007 l 299 0 l 83 0 m 239 1243 l 381 1243 l 381 1079 l 239 1079 m 0 1243 l 142 1243 l 142 1079 l 0 1079 "},"Ì":{"ha":386,"x_min":0,"x_max":0,"o":"m 83 1007 l 299 1007 l 299 0 l 83 0 m 294 1074 l 176 1074 l -17 1275 l 178 1275 "},"Ñ":{"ha":1081,"x_min":0,"x_max":0,"o":"m 100 1004 l 411 1004 l 788 214 l 788 1004 l 988 1004 l 988 0 l 692 0 l 303 833 l 303 0 l 100 0 m 289 1085 b 453 1256 304 1188 369 1256 b 522 1240 482 1256 519 1242 l 601 1210 b 649 1201 610 1207 625 1201 b 714 1265 689 1201 707 1231 l 785 1265 b 729 1136 779 1215 768 1172 b 629 1096 708 1115 676 1096 b 557 1111 599 1096 572 1106 l 497 1133 b 435 1147 481 1139 453 1147 b 361 1085 411 1147 379 1138 "},"Ó":{"ha":1081,"x_min":0,"x_max":0,"o":"m 58 488 b 540 1025 58 754 179 1025 b 893 889 647 1025 794 1000 b 1021 511 1000 767 1021 610 b 894 118 1021 365 976 210 b 538 -25 783 -7 621 -25 b 182 113 406 -25 274 17 b 58 488 72 229 58 396 m 283 494 b 358 214 283 399 299 292 b 540 133 389 172 440 133 b 728 226 628 133 688 164 b 796 514 761 276 796 354 b 771 693 796 563 792 632 b 542 871 729 817 644 871 b 357 786 461 871 397 838 b 283 494 300 717 283 608 m 558 1074 l 447 1074 l 563 1275 l 749 1275 "},"Ô":{"ha":1081,"x_min":0,"x_max":0,"o":"m 58 488 b 540 1025 58 754 179 1025 b 893 889 647 1025 794 1000 b 1021 511 1000 767 1021 610 b 894 118 1021 365 976 210 b 538 -25 783 -7 621 -25 b 182 113 406 -25 274 17 b 58 488 72 229 58 396 m 283 494 b 358 214 283 399 299 292 b 540 133 389 172 440 133 b 728 226 628 133 688 164 b 796 514 761 276 796 354 b 771 693 796 563 792 632 b 542 871 729 817 644 871 b 357 786 461 871 397 838 b 283 494 300 717 283 608 m 469 1275 l 613 1275 l 757 1074 l 633 1074 l 539 1192 l 442 1074 l 317 1074 "},"Ö":{"ha":1081,"x_min":0,"x_max":0,"o":"m 58 488 b 540 1025 58 754 179 1025 b 893 889 647 1025 794 1000 b 1021 511 1000 767 1021 610 b 894 118 1021 365 976 210 b 538 -25 783 -7 621 -25 b 182 113 406 -25 274 17 b 58 488 72 229 58 396 m 283 494 b 358 214 283 399 299 292 b 540 133 389 172 440 133 b 728 226 628 133 688 164 b 796 514 761 276 796 354 b 771 693 796 563 792 632 b 542 871 729 817 644 871 b 357 786 461 871 397 838 b 283 494 300 717 283 608 m 586 1243 l 728 1243 l 728 1079 l 586 1079 m 347 1243 l 489 1243 l 489 1079 l 347 1079 "},"Ò":{"ha":1081,"x_min":0,"x_max":0,"o":"m 58 488 b 540 1025 58 754 179 1025 b 893 889 647 1025 794 1000 b 1021 511 1000 767 1021 610 b 894 118 1021 365 976 210 b 538 -25 783 -7 621 -25 b 182 113 406 -25 274 17 b 58 488 72 229 58 396 m 283 494 b 358 214 283 399 299 292 b 540 133 389 172 440 133 b 728 226 628 133 688 164 b 796 514 761 276 796 354 b 771 693 796 563 792 632 b 542 871 729 817 644 871 b 357 786 461 871 397 838 b 283 494 300 717 283 608 m 642 1074 l 524 1074 l 331 1275 l 525 1275 "},"Õ":{"ha":1081,"x_min":0,"x_max":0,"o":"m 58 488 b 540 1025 58 754 179 1025 b 893 889 647 1025 794 1000 b 1021 511 1000 767 1021 610 b 894 118 1021 365 976 210 b 538 -25 783 -7 621 -25 b 182 113 406 -25 274 17 b 58 488 72 229 58 396 m 283 494 b 358 214 283 399 299 292 b 540 133 389 172 440 133 b 728 226 628 133 688 164 b 796 514 761 276 796 354 b 771 693 796 563 792 632 b 542 871 729 817 644 871 b 357 786 461 871 397 838 b 283 494 300 717 283 608 m 289 1085 b 453 1256 304 1188 369 1256 b 522 1240 482 1256 519 1242 l 601 1210 b 649 1201 610 1207 625 1201 b 714 1265 689 1201 707 1231 l 785 1265 b 729 1136 779 1215 768 1172 b 629 1096 708 1115 676 1096 b 557 1111 599 1096 572 1106 l 497 1133 b 435 1147 481 1139 453 1147 b 361 1085 411 1147 379 1138 "},"Š":{"ha":926,"x_min":0,"x_max":0,"o":"m 268 321 b 450 131 268 274 265 131 b 640 271 567 131 640 186 b 450 406 640 360 578 375 b 81 710 211 465 81 536 b 478 1021 81 875 199 1021 b 781 903 582 1021 706 997 b 838 717 838 831 838 750 l 631 717 b 468 869 628 751 617 869 b 303 733 368 869 303 815 b 521 588 303 640 376 624 b 865 303 694 546 865 499 b 438 -24 865 122 715 -24 b 49 321 53 -24 50 224 m 693 1275 l 546 1074 l 383 1074 l 239 1275 l 369 1275 l 467 1149 l 564 1275 "},"Ú":{"ha":1081,"x_min":0,"x_max":0,"o":"m 315 1001 l 315 390 b 533 143 315 281 324 143 b 728 231 568 143 672 144 b 760 401 749 261 760 300 l 760 1001 l 969 1001 l 969 375 b 529 -19 969 76 732 -19 b 151 154 429 -19 246 3 b 100 401 103 231 100 308 l 100 1001 m 558 1074 l 447 1074 l 563 1275 l 749 1275 "},"Û":{"ha":1081,"x_min":0,"x_max":0,"o":"m 315 1001 l 315 390 b 533 143 315 281 324 143 b 728 231 568 143 672 144 b 760 401 749 261 760 300 l 760 1001 l 969 1001 l 969 375 b 529 -19 969 76 732 -19 b 151 154 429 -19 246 3 b 100 401 103 231 100 308 l 100 1001 m 469 1275 l 613 1275 l 757 1074 l 633 1074 l 539 1192 l 442 1074 l 317 1074 "},"Ü":{"ha":1081,"x_min":0,"x_max":0,"o":"m 315 1001 l 315 390 b 533 143 315 281 324 143 b 728 231 568 143 672 144 b 760 401 749 261 760 300 l 760 1001 l 969 1001 l 969 375 b 529 -19 969 76 732 -19 b 151 154 429 -19 246 3 b 100 401 103 231 100 308 l 100 1001 m 586 1243 l 728 1243 l 728 1079 l 586 1079 m 347 1243 l 489 1243 l 489 1079 l 347 1079 "},"Ù":{"ha":1081,"x_min":0,"x_max":0,"o":"m 315 1001 l 315 390 b 533 143 315 281 324 143 b 728 231 568 143 672 144 b 760 401 749 261 760 300 l 760 1001 l 969 1001 l 969 375 b 529 -19 969 76 732 -19 b 151 154 429 -19 246 3 b 100 401 103 231 100 308 l 100 1001 m 642 1074 l 524 1074 l 331 1275 l 525 1275 "},"Ý":{"ha":926,"x_min":0,"x_max":0,"o":"m 274 1000 l 481 543 l 692 1000 l 913 1000 l 574 365 l 574 0 l 361 0 l 361 368 l 22 1000 m 482 1074 l 371 1074 l 486 1275 l 672 1275 "},"Ÿ":{"ha":926,"x_min":0,"x_max":0,"o":"m 274 1000 l 481 543 l 692 1000 l 913 1000 l 574 365 l 574 0 l 361 0 l 361 368 l 22 1000 m 510 1243 l 651 1243 l 651 1079 l 510 1079 m 271 1243 l 413 1243 l 413 1079 l 271 1079 "},"Ž":{"ha":849,"x_min":0,"x_max":0,"o":"m 38 183 l 563 840 l 69 836 l 69 1000 l 796 1000 l 796 810 l 272 157 l 807 165 l 807 0 l 38 0 m 654 1275 l 507 1074 l 344 1074 l 200 1275 l 331 1275 l 428 1149 l 525 1275 "},"á":{"ha":772,"x_min":0,"x_max":0,"o":"m 511 0 b 504 96 504 43 504 75 b 294 -17 426 -17 333 -17 b 119 39 193 -17 147 13 b 58 193 78 81 58 138 b 207 411 58 249 78 351 b 485 450 293 450 417 450 b 475 543 485 496 483 518 b 383 601 457 594 403 601 b 306 563 354 601 324 589 b 290 500 290 539 290 517 l 89 500 b 168 665 90 538 94 613 b 381 722 232 711 314 722 b 631 632 439 722 561 713 b 679 460 678 575 679 492 l 681 178 b 697 0 681 118 685 58 m 485 331 b 258 217 353 342 258 300 b 358 117 258 169 290 117 b 446 157 396 117 426 135 b 485 331 482 201 485 256 m 404 813 l 293 813 l 408 1014 l 594 1014 "},"â":{"ha":772,"x_min":0,"x_max":0,"o":"m 511 0 b 504 96 504 43 504 75 b 294 -17 426 -17 333 -17 b 119 39 193 -17 147 13 b 58 193 78 81 58 138 b 207 411 58 249 78 351 b 485 450 293 450 417 450 b 475 543 485 496 483 518 b 383 601 457 594 403 601 b 306 563 354 601 324 589 b 290 500 290 539 290 517 l 89 500 b 168 665 90 538 94 613 b 381 722 232 711 314 722 b 631 632 439 722 561 713 b 679 460 678 575 679 492 l 681 178 b 697 0 681 118 685 58 m 485 331 b 258 217 353 342 258 300 b 358 117 258 169 290 117 b 446 157 396 117 426 135 b 485 331 482 201 485 256 m 315 1014 l 458 1014 l 603 813 l 479 813 l 385 931 l 288 813 l 163 813 "},"ä":{"ha":772,"x_min":0,"x_max":0,"o":"m 511 0 b 504 96 504 43 504 75 b 294 -17 426 -17 333 -17 b 119 39 193 -17 147 13 b 58 193 78 81 58 138 b 207 411 58 249 78 351 b 485 450 293 450 417 450 b 475 543 485 496 483 518 b 383 601 457 594 403 601 b 306 563 354 601 324 589 b 290 500 290 539 290 517 l 89 500 b 168 665 90 538 94 613 b 381 722 232 711 314 722 b 631 632 439 722 561 713 b 679 460 678 575 679 492 l 681 178 b 697 0 681 118 685 58 m 485 331 b 258 217 353 342 258 300 b 358 117 258 169 290 117 b 446 157 396 117 426 135 b 485 331 482 201 485 256 m 432 996 l 574 996 l 574 832 l 432 832 m 193 996 l 335 996 l 335 832 l 193 832 "},"à":{"ha":772,"x_min":0,"x_max":0,"o":"m 511 0 b 504 96 504 43 504 75 b 294 -17 426 -17 333 -17 b 119 39 193 -17 147 13 b 58 193 78 81 58 138 b 207 411 58 249 78 351 b 485 450 293 450 417 450 b 475 543 485 496 483 518 b 383 601 457 594 403 601 b 306 563 354 601 324 589 b 290 500 290 539 290 517 l 89 500 b 168 665 90 538 94 613 b 381 722 232 711 314 722 b 631 632 439 722 561 713 b 679 460 678 575 679 492 l 681 178 b 697 0 681 118 685 58 m 485 331 b 258 217 353 342 258 300 b 358 117 258 169 290 117 b 446 157 396 117 426 135 b 485 331 482 201 485 256 m 488 813 l 369 813 l 176 1014 l 371 1014 "},"å":{"ha":772,"x_min":0,"x_max":0,"o":"m 511 0 b 504 96 504 43 504 75 b 294 -17 426 -17 333 -17 b 119 39 193 -17 147 13 b 58 193 78 81 58 138 b 207 411 58 249 78 351 b 485 450 293 450 417 450 b 475 543 485 496 483 518 b 383 601 457 594 403 601 b 306 563 354 601 324 589 b 290 500 290 539 290 517 l 89 500 b 168 665 90 538 94 613 b 381 722 232 711 314 722 b 631 632 439 722 561 713 b 679 460 678 575 679 492 l 681 178 b 697 0 681 118 685 58 m 485 331 b 258 217 353 342 258 300 b 358 117 258 169 290 117 b 446 157 396 117 426 135 b 485 331 482 201 485 256 m 386 1056 b 526 914 467 1056 526 990 b 386 772 526 838 465 772 b 246 914 310 772 246 835 b 386 1056 246 992 308 1056 m 386 989 b 313 914 346 989 313 956 b 386 840 313 874 346 840 b 461 914 428 840 461 874 b 386 989 461 954 429 989 "},"ã":{"ha":772,"x_min":0,"x_max":0,"o":"m 511 0 b 504 96 504 43 504 75 b 294 -17 426 -17 333 -17 b 119 39 193 -17 147 13 b 58 193 78 81 58 138 b 207 411 58 249 78 351 b 485 450 293 450 417 450 b 475 543 485 496 483 518 b 383 601 457 594 403 601 b 306 563 354 601 324 589 b 290 500 290 539 290 517 l 89 500 b 168 665 90 538 94 613 b 381 722 232 711 314 722 b 631 632 439 722 561 713 b 679 460 678 575 679 492 l 681 178 b 697 0 681 118 685 58 m 485 331 b 258 217 353 342 258 300 b 358 117 258 169 290 117 b 446 157 396 117 426 135 b 485 331 482 201 485 256 m 135 824 b 299 994 150 926 215 994 b 368 979 328 994 365 981 l 447 949 b 494 940 456 946 471 940 b 560 1004 535 940 553 969 l 631 1004 b 575 875 625 954 614 911 b 475 835 554 854 522 835 b 403 850 444 835 418 844 l 343 872 b 281 886 326 878 299 886 b 207 824 257 886 225 876 "},"ç":{"ha":694,"x_min":0,"x_max":0,"o":"m 667 254 b 576 47 664 199 657 115 b 394 -18 513 -7 449 -15 l 344 -86 b 394 -81 360 -83 371 -81 b 510 -181 486 -81 510 -143 b 335 -307 510 -282 399 -307 b 200 -276 271 -307 218 -285 l 229 -218 b 326 -243 263 -232 297 -243 b 404 -190 374 -243 404 -221 b 342 -139 404 -171 389 -139 b 286 -151 315 -139 299 -146 l 257 -122 l 331 -17 b 138 75 294 -12 207 -4 b 49 351 78 143 49 235 b 376 715 49 671 283 715 b 663 453 507 715 661 643 l 461 453 b 371 582 458 478 450 582 b 263 358 274 582 263 435 b 314 143 263 319 267 194 b 369 119 333 122 354 119 b 464 254 392 119 456 129 "},"é":{"ha":772,"x_min":0,"x_max":0,"o":"m 256 299 b 399 111 256 253 256 111 b 521 208 450 111 501 131 l 708 208 b 642 56 706 175 699 115 b 396 -26 590 1 499 -26 b 149 61 336 -26 222 -15 b 58 335 85 128 58 222 b 204 667 58 449 86 585 b 401 725 258 703 325 725 b 685 556 501 725 621 686 b 726 299 732 460 729 357 m 517 428 b 394 585 517 460 514 585 b 263 428 304 585 267 510 m 404 813 l 293 813 l 408 1014 l 594 1014 "},"ê":{"ha":772,"x_min":0,"x_max":0,"o":"m 256 299 b 399 111 256 253 256 111 b 521 208 450 111 501 131 l 708 208 b 642 56 706 175 699 115 b 396 -26 590 1 499 -26 b 149 61 336 -26 222 -15 b 58 335 85 128 58 222 b 204 667 58 449 86 585 b 401 725 258 703 325 725 b 685 556 501 725 621 686 b 726 299 732 460 729 357 m 517 428 b 394 585 517 460 514 585 b 263 428 304 585 267 510 m 315 1014 l 458 1014 l 603 813 l 479 813 l 385 931 l 288 813 l 163 813 "},"ë":{"ha":772,"x_min":0,"x_max":0,"o":"m 256 299 b 399 111 256 253 256 111 b 521 208 450 111 501 131 l 708 208 b 642 56 706 175 699 115 b 396 -26 590 1 499 -26 b 149 61 336 -26 222 -15 b 58 335 85 128 58 222 b 204 667 58 449 86 585 b 401 725 258 703 325 725 b 685 556 501 725 621 686 b 726 299 732 460 729 357 m 517 428 b 394 585 517 460 514 585 b 263 428 304 585 267 510 m 432 996 l 574 996 l 574 832 l 432 832 m 193 996 l 335 996 l 335 832 l 193 832 "},"è":{"ha":772,"x_min":0,"x_max":0,"o":"m 256 299 b 399 111 256 253 256 111 b 521 208 450 111 501 131 l 708 208 b 642 56 706 175 699 115 b 396 -26 590 1 499 -26 b 149 61 336 -26 222 -15 b 58 335 85 128 58 222 b 204 667 58 449 86 585 b 401 725 258 703 325 725 b 685 556 501 725 621 686 b 726 299 732 460 729 357 m 517 428 b 394 585 517 460 514 585 b 263 428 304 585 267 510 m 488 813 l 369 813 l 176 1014 l 371 1014 "},"í":{"ha":386,"x_min":0,"x_max":0,"o":"m 90 703 l 296 703 l 296 0 l 90 0 m 211 813 l 100 813 l 215 1014 l 401 1014 "},"î":{"ha":386,"x_min":0,"x_max":0,"o":"m 90 703 l 296 703 l 296 0 l 90 0 m 122 1014 l 265 1014 l 410 813 l 286 813 l 192 931 l 94 813 l -31 813 "},"ï":{"ha":386,"x_min":0,"x_max":0,"o":"m 90 703 l 296 703 l 296 0 l 90 0 m 239 996 l 381 996 l 381 832 l 239 832 m 0 996 l 142 996 l 142 832 l 0 832 "},"ì":{"ha":386,"x_min":0,"x_max":0,"o":"m 90 703 l 296 703 l 296 0 l 90 0 m 294 813 l 176 813 l -17 1014 l 178 1014 "},"ñ":{"ha":849,"x_min":0,"x_max":0,"o":"m 93 576 b 89 704 93 579 93 656 l 286 704 l 292 599 b 519 721 311 631 367 721 b 733 589 657 721 715 638 b 753 379 749 546 753 510 l 753 0 l 543 0 l 543 436 b 532 513 543 465 543 490 b 432 572 517 543 485 572 b 325 518 388 572 347 551 b 300 411 313 500 300 465 l 300 0 l 93 0 m 174 824 b 338 994 189 926 254 994 b 407 979 367 994 404 981 l 486 949 b 533 940 494 946 510 940 b 599 1004 574 940 592 969 l 669 1004 b 614 875 664 954 653 911 b 514 835 593 854 561 835 b 442 850 483 835 457 844 l 382 872 b 319 886 365 878 338 886 b 246 824 296 886 264 876 "},"ó":{"ha":849,"x_min":0,"x_max":0,"o":"m 58 344 b 421 718 58 514 144 718 b 785 350 675 718 785 546 b 417 -25 785 153 671 -25 b 58 344 217 -25 58 99 m 269 343 b 424 118 269 186 322 118 b 575 358 514 118 575 172 b 421 581 575 451 557 581 b 269 343 271 581 269 407 m 443 813 l 332 813 l 447 1014 l 633 1014 "},"ô":{"ha":849,"x_min":0,"x_max":0,"o":"m 58 344 b 421 718 58 514 144 718 b 785 350 675 718 785 546 b 417 -25 785 153 671 -25 b 58 344 217 -25 58 99 m 269 343 b 424 118 269 186 322 118 b 575 358 514 118 575 172 b 421 581 575 451 557 581 b 269 343 271 581 269 407 m 354 1014 l 497 1014 l 642 813 l 518 813 l 424 931 l 326 813 l 201 813 "},"ö":{"ha":849,"x_min":0,"x_max":0,"o":"m 58 344 b 421 718 58 514 144 718 b 785 350 675 718 785 546 b 417 -25 785 153 671 -25 b 58 344 217 -25 58 99 m 269 343 b 424 118 269 186 322 118 b 575 358 514 118 575 172 b 421 581 575 451 557 581 b 269 343 271 581 269 407 m 471 996 l 613 996 l 613 832 l 471 832 m 232 996 l 374 996 l 374 832 l 232 832 "},"ò":{"ha":849,"x_min":0,"x_max":0,"o":"m 58 344 b 421 718 58 514 144 718 b 785 350 675 718 785 546 b 417 -25 785 153 671 -25 b 58 344 217 -25 58 99 m 269 343 b 424 118 269 186 322 118 b 575 358 514 118 575 172 b 421 581 575 451 557 581 b 269 343 271 581 269 407 m 526 813 l 408 813 l 215 1014 l 410 1014 "},"õ":{"ha":849,"x_min":0,"x_max":0,"o":"m 58 344 b 421 718 58 514 144 718 b 785 350 675 718 785 546 b 417 -25 785 153 671 -25 b 58 344 217 -25 58 99 m 269 343 b 424 118 269 186 322 118 b 575 358 514 118 575 172 b 421 581 575 451 557 581 b 269 343 271 581 269 407 m 174 824 b 338 994 189 926 254 994 b 407 979 367 994 404 981 l 486 949 b 533 940 494 946 510 940 b 599 1004 574 940 592 969 l 669 1004 b 614 875 664 954 653 911 b 514 835 593 854 561 835 b 442 850 483 835 457 844 l 382 872 b 319 886 365 878 338 886 b 246 824 296 886 264 876 "},"š":{"ha":694,"x_min":0,"x_max":0,"o":"m 233 203 b 350 107 236 158 264 107 b 458 190 424 107 458 149 b 361 269 458 222 442 247 l 233 304 b 56 499 176 321 56 356 b 363 718 56 635 181 718 b 629 511 507 718 624 651 l 442 511 b 342 594 436 589 374 594 b 244 525 286 594 244 568 b 340 451 244 478 279 468 l 467 417 b 654 221 594 382 654 317 b 332 -21 654 100 550 -21 b 92 65 242 -21 156 -1 b 40 203 46 114 42 169 m 576 1014 l 429 813 l 267 813 l 122 1014 l 253 1014 l 350 888 l 447 1014 "},"ú":{"ha":849,"x_min":0,"x_max":0,"o":"m 292 701 l 292 283 b 401 129 292 222 292 129 b 533 347 533 129 533 228 l 533 701 l 744 701 l 744 239 b 749 51 747 88 749 69 b 754 0 750 32 751 19 l 554 0 l 547 93 b 340 -18 526 63 474 -18 b 129 76 246 -18 168 25 b 83 265 83 133 83 231 l 83 701 m 443 813 l 332 813 l 447 1014 l 633 1014 "},"û":{"ha":849,"x_min":0,"x_max":0,"o":"m 292 701 l 292 283 b 401 129 292 222 292 129 b 533 347 533 129 533 228 l 533 701 l 744 701 l 744 239 b 749 51 747 88 749 69 b 754 0 750 32 751 19 l 554 0 l 547 93 b 340 -18 526 63 474 -18 b 129 76 246 -18 168 25 b 83 265 83 133 83 231 l 83 701 m 354 1014 l 497 1014 l 642 813 l 518 813 l 424 931 l 326 813 l 201 813 "},"ü":{"ha":849,"x_min":0,"x_max":0,"o":"m 292 701 l 292 283 b 401 129 292 222 292 129 b 533 347 533 129 533 228 l 533 701 l 744 701 l 744 239 b 749 51 747 88 749 69 b 754 0 750 32 751 19 l 554 0 l 547 93 b 340 -18 526 63 474 -18 b 129 76 246 -18 168 25 b 83 265 83 133 83 231 l 83 701 m 471 996 l 613 996 l 613 832 l 471 832 m 232 996 l 374 996 l 374 832 l 232 832 "},"ù":{"ha":849,"x_min":0,"x_max":0,"o":"m 292 701 l 292 283 b 401 129 292 222 292 129 b 533 347 533 129 533 228 l 533 701 l 744 701 l 744 239 b 749 51 747 88 749 69 b 754 0 750 32 751 19 l 554 0 l 547 93 b 340 -18 526 63 474 -18 b 129 76 246 -18 168 25 b 83 265 83 133 83 231 l 83 701 m 526 813 l 408 813 l 215 1014 l 410 1014 "},"ý":{"ha":772,"x_min":0,"x_max":0,"o":"m 242 701 l 396 215 l 553 701 l 757 701 l 492 13 l 407 -267 l 200 -267 l 289 -3 l 19 701 m 404 813 l 293 813 l 408 1014 l 594 1014 "},"ÿ":{"ha":772,"x_min":0,"x_max":0,"o":"m 242 701 l 396 215 l 553 701 l 757 701 l 492 13 l 407 -267 l 200 -267 l 289 -3 l 19 701 m 432 996 l 574 996 l 574 832 l 432 832 m 193 996 l 335 996 l 335 832 l 193 832 "},"ž":{"ha":694,"x_min":0,"x_max":0,"o":"m 44 181 l 400 564 l 54 564 l 54 701 l 629 701 l 629 525 l 274 142 l 643 142 l 643 0 l 44 0 m 576 1014 l 429 813 l 267 813 l 122 1014 l 253 1014 l 350 888 l 447 1014 "},"Ω":{"ha":976,"x_min":0,"x_max":0,"o":"m 236 151 b 69 535 153 229 69 360 b 492 978 69 775 239 978 b 904 544 761 978 904 746 b 735 151 904 368 819 229 l 735 147 l 922 147 l 922 0 l 556 0 l 556 108 b 719 504 640 163 719 286 b 490 826 719 674 640 826 b 254 497 347 826 254 688 b 418 108 254 299 332 160 l 418 0 l 50 0 l 50 147 l 236 147 "},"μ":{"ha":849,"x_min":0,"x_max":0,"o":"m 99 701 l 276 701 l 276 363 b 408 136 276 233 288 136 b 544 358 540 136 544 264 l 544 701 l 724 701 l 724 0 l 571 0 l 571 83 b 413 -12 549 49 508 -12 b 272 57 325 -12 292 32 l 272 -294 l 97 -294 "},"π":{"ha":835,"x_min":0,"x_max":0,"o":"m 706 569 l 706 206 b 724 0 706 106 714 43 l 547 0 b 524 197 531 29 524 101 l 524 569 l 339 569 b 251 0 332 422 300 144 l 75 0 b 160 569 121 161 157 421 b 25 556 96 569 56 565 l 6 676 b 235 724 40 704 114 724 l 817 724 l 803 569 "},"€":{"ha":772,"x_min":0,"x_max":0,"o":"m 467 303 l 303 303 b 444 131 313 206 357 131 b 574 311 522 131 571 200 l 753 311 b 444 -18 753 107 633 -18 b 118 303 254 -18 151 114 l 8 303 l 33 428 l 104 428 b 103 478 103 444 103 461 b 104 518 103 492 104 506 l 8 518 l 33 643 l 117 643 b 453 974 156 850 269 974 b 751 651 610 974 751 868 l 575 651 b 453 833 569 765 517 833 b 301 643 376 833 325 769 l 531 643 l 507 518 l 292 518 l 290 497 b 292 428 290 475 290 451 l 490 428 "},"ℓ":{"ha":714,"x_min":0,"x_max":0,"o":"m 689 183 b 399 -11 615 40 508 -11 b 147 214 233 -11 163 92 l 147 228 b 76 174 125 211 100 190 l 32 269 b 144 364 72 303 110 331 l 144 707 b 396 1060 144 953 258 1060 b 590 814 531 1060 590 950 b 319 339 590 651 486 499 l 321 279 b 440 135 324 185 374 135 b 615 260 514 135 576 197 m 319 504 b 476 821 413 610 476 726 b 404 932 476 889 458 932 b 319 711 364 932 319 883 "},"℮":{"ha":1204,"x_min":0,"x_max":0,"o":"m 258 469 b 250 464 253 469 250 468 l 250 192 b 263 161 250 181 256 171 b 601 14 350 71 469 14 b 960 179 746 14 872 79 l 1039 179 b 600 -14 940 63 779 -14 b 47 483 294 -14 47 208 b 600 983 47 760 294 983 b 1156 483 908 983 1156 760 l 1156 469 m 953 779 b 939 811 953 790 947 803 b 601 953 851 897 733 953 b 264 807 471 953 351 896 b 250 772 256 799 250 786 l 250 506 b 258 497 250 503 253 497 l 946 497 b 953 506 950 497 953 503 "},"∂":{"ha":796,"x_min":0,"x_max":0,"o":"m 92 1008 b 347 1089 135 1042 217 1089 b 731 564 551 1089 731 911 b 340 -10 731 219 586 -10 b 51 318 144 -10 51 171 b 350 679 51 540 185 679 b 551 571 461 679 531 606 l 553 571 l 553 617 b 324 939 553 785 464 939 b 143 874 239 939 179 903 m 360 142 b 536 422 460 142 522 293 b 386 535 524 464 471 535 b 231 311 294 535 231 429 b 358 142 231 218 281 142 "},"∏":{"ha":999,"x_min":0,"x_max":0,"o":"m 824 799 l 824 -133 l 644 -133 l 644 799 l 353 799 l 353 -133 l 174 -133 l 174 799 l 33 799 l 33 963 l 964 963 l 964 799 "},"∑":{"ha":771,"x_min":0,"x_max":0,"o":"m 32 -133 l 32 -17 l 361 415 l 44 836 l 44 963 l 722 963 l 722 808 l 286 808 l 286 804 l 565 444 l 256 39 l 256 35 l 746 35 l 746 -133 "},"∙":{"ha":386,"x_min":0,"x_max":0,"o":"m 103 481 l 279 481 l 279 296 l 103 296 "},"√":{"ha":821,"x_min":0,"x_max":0,"o":"m 524 -192 l 379 -192 l 175 408 l 74 368 l 43 468 l 282 565 l 424 133 b 451 11 433 89 444 43 l 453 11 b 475 142 458 42 465 92 l 708 1156 l 833 1156 "},"∞":{"ha":1072,"x_min":0,"x_max":0,"o":"m 1007 396 b 785 156 1007 246 897 156 b 538 313 706 156 629 190 b 283 156 467 224 394 156 b 65 390 169 156 65 251 b 296 628 65 531 164 628 b 543 475 397 628 472 567 b 792 628 600 540 668 628 b 1007 399 913 626 1007 536 m 299 254 b 485 385 375 254 432 322 b 292 532 428 461 381 532 b 167 389 214 532 167 471 b 296 254 167 315 222 254 m 781 532 b 593 394 697 532 636 444 b 788 254 675 292 718 254 b 906 389 864 254 906 329 b 782 532 906 472 857 532 "},"∫":{"ha":550,"x_min":0,"x_max":0,"o":"m 500 1051 b 451 1063 488 1057 471 1063 b 382 1028 425 1063 400 1053 b 346 797 354 990 346 911 b 367 139 346 572 367 388 b 317 -137 367 8 347 -82 b 136 -239 279 -211 206 -239 b 28 -217 92 -239 49 -228 l 50 -89 b 110 -103 64 -94 85 -103 b 171 -75 132 -103 156 -96 b 207 136 194 -43 207 14 b 186 814 207 389 186 578 b 269 1128 186 976 210 1064 b 433 1192 310 1171 374 1192 b 519 1175 469 1192 503 1182 "},"≈":{"ha":758,"x_min":0,"x_max":0,"o":"m 703 567 b 515 424 660 482 593 424 b 361 478 460 424 424 440 b 243 524 321 503 289 524 b 115 425 183 524 149 475 l 51 483 b 253 626 92 564 167 626 b 397 575 318 626 363 596 b 517 526 447 546 475 526 b 640 625 569 526 603 565 m 703 307 b 515 164 660 225 594 164 b 361 219 460 164 422 183 b 244 267 319 246 288 267 b 115 167 182 267 150 217 l 51 225 b 251 367 92 306 167 367 b 397 318 319 367 363 338 b 517 267 440 293 472 267 b 640 367 569 267 601 307 "},"≠":{"ha":758,"x_min":0,"x_max":0,"o":"m 506 588 l 692 588 l 692 483 l 467 483 l 386 297 l 692 297 l 692 194 l 346 194 l 278 38 l 196 71 l 250 194 l 65 194 l 65 297 l 290 297 l 371 483 l 65 483 l 65 588 l 410 588 l 476 740 l 558 708 "},"≤":{"ha":758,"x_min":0,"x_max":0,"o":"m 74 444 l 74 557 l 688 864 l 688 743 l 176 503 l 176 500 l 688 258 l 688 138 m 68 -19 l 68 86 l 693 86 l 693 -19 "},"≥":{"ha":758,"x_min":0,"x_max":0,"o":"m 690 557 l 690 444 l 76 138 l 76 258 l 586 500 l 586 503 l 75 743 l 75 864 m 68 -19 l 68 86 l 690 86 l 690 -19 "},"◊":{"ha":819,"x_min":0,"x_max":0,"o":"m 478 -68 l 333 -68 l 68 481 l 342 1029 l 486 1029 l 753 481 m 439 800 b 414 883 429 825 418 858 l 408 883 b 382 800 403 857 393 826 l 228 483 l 383 156 b 406 76 393 128 403 94 l 413 76 b 436 153 417 96 429 138 l 593 476 "}," ":{"ha":386,"x_min":0,"x_max":0,"o":""},"­":{"ha":463,"x_min":0,"x_max":0,"o":"m 61 446 l 406 446 l 406 289 l 61 289 "},"ˉ":{"ha":386,"x_min":0,"x_max":0,"o":"m -50 867 l -50 961 l 425 961 l 425 867 "},"Ω":{"ha":976,"x_min":0,"x_max":0,"o":"m 236 151 b 69 535 153 229 69 360 b 492 978 69 775 239 978 b 904 544 761 978 904 746 b 735 151 904 368 819 229 l 735 147 l 922 147 l 922 0 l 556 0 l 556 108 b 719 504 640 163 719 286 b 490 826 719 674 640 826 b 254 497 347 826 254 688 b 418 108 254 299 332 160 l 418 0 l 50 0 l 50 147 l 236 147 "},"∕":{"ha":232,"x_min":0,"x_max":0,"o":"m 347 1007 l 461 1007 l -118 -39 l -232 -39 "},"∆":{"ha":907,"x_min":0,"x_max":0,"o":"m 36 106 l 350 983 l 567 983 l 869 107 l 869 0 l 36 0 m 675 146 l 529 540 b 453 788 508 614 468 728 l 449 788 b 378 561 438 739 399 638 l 224 146 "},"‐":{"ha":463,"x_min":0,"x_max":0,"o":"m 61 446 l 406 446 l 406 289 l 61 289 "}}}
